<svg width="519" height="343" viewBox="0 0 519 343" fill="none" xmlns="http://www.w3.org/2000/svg">
<g clip-path="url(#clip0_20_425)">
<path fill-rule="evenodd" clip-rule="evenodd" d="M129.656 93.4872C137.993 119.17 65.6722 167.805 65.6722 215.835C65.6722 247.795 91.5747 273.704 123.524 273.704C155.475 273.704 181.376 247.795 181.376 215.835C205.585 273.596 162.48 343 95.6976 343C16.6895 343 -26.3016 250.613 27.0742 184.606C52.545 153.108 116.586 121.703 129.656 93.4872Z" fill="url(#paint0_linear_20_425)"/>
<path fill-rule="evenodd" clip-rule="evenodd" d="M129.724 95.1336C136.516 118.695 64.3137 169.029 64.3137 217.406C64.3137 248.905 89.2939 274.566 120.519 275.655L120.448 275.656C68.3813 275.511 48.8434 240.767 61.2423 200.461C73.64 160.156 133.707 119.319 129.724 95.1336Z" fill="#E08519"/>
<path fill-rule="evenodd" clip-rule="evenodd" d="M58.9742 109.052C59.8907 110.25 60.8244 111.253 61.7571 112.072C62.0745 112.317 62.3688 112.559 62.6412 112.793C68.5521 117.249 74.2022 114.294 75.1602 105.814L77.4179 107.872C78.2639 106.327 82.9398 97.982 84.5304 91.9562C77.0912 83.8533 72.547 73.0463 72.547 61.1771C72.547 49.6589 76.8258 39.1429 83.8771 31.1255C83.2676 29.4236 82.6189 27.7367 82.0037 26.29C68.7195 32.8135 58.3174 44.3063 53.2145 58.3438L53.2133 58.338L53.1545 58.5077L53.031 58.8495C52.9017 59.1751 52.7643 59.3702 52.4446 59.3968C51.9829 59.4349 51.7902 59.5884 51.5028 60.5121C51.2142 61.4358 50.6359 63.8408 50.5401 64.3604C50.4443 64.8776 50.554 65.4237 51.1484 65.4133C50.2412 69.4729 49.761 73.6952 49.761 78.0284C49.761 82.932 50.3739 87.6912 51.527 92.2356C51.9494 91.962 52.3742 91.6895 52.7978 91.4159C52.7978 91.4159 54.5096 102.754 58.9742 109.052Z" fill="url(#paint1_linear_20_425)"/>
<path fill-rule="evenodd" clip-rule="evenodd" d="M98.6122 11.1372C92.2373 4.42439 83.2861 0.18358 73.3423 0C76.4991 3.38757 79.2486 7.15962 81.5155 11.2365C84.4634 10.7769 87.4322 10.5495 90.3951 10.5506C90.8672 10.5506 91.3393 10.5564 91.8114 10.5691C94.1141 10.6245 96.3845 10.8174 98.6122 11.1372Z" fill="url(#paint2_linear_20_425)"/>
<path fill-rule="evenodd" clip-rule="evenodd" d="M81.3758 15.3676C111.939 70.4658 79.1181 140.812 15.8619 151.428C17.3001 153.979 18.8549 156.454 20.5205 158.847C84.3745 145.276 133.265 91.2138 139.06 24.7994C121.397 15.4669 101.066 12.1948 81.3758 15.3676Z" fill="url(#paint3_linear_20_425)"/>
<path fill-rule="evenodd" clip-rule="evenodd" d="M12.054 151.99C8.21733 152.472 4.31136 152.715 0.352295 152.708C3.97432 155.677 7.96802 158.214 12.2595 160.24C13.6458 160.045 15.0262 159.83 16.3998 159.598C14.8346 157.137 13.3849 154.599 12.054 151.99Z" fill="url(#paint4_linear_20_425)"/>
<path fill-rule="evenodd" clip-rule="evenodd" d="M180.962 271.789C169.788 310.656 135.844 338.922 95.6977 338.922C55.5507 338.922 21.6066 310.656 10.4335 271.789C25.793 303.467 58.1997 325.302 95.6977 325.302C133.195 325.302 165.601 303.467 180.962 271.789Z" fill="#E08519"/>
<path fill-rule="evenodd" clip-rule="evenodd" d="M50.3715 166.818C50.6936 169.509 49.4193 171.85 48.093 173.699C40.2038 188.141 12.1417 208.798 6.38782 246.634C9.61971 204.531 30.4931 182.604 50.3715 166.818Z" fill="#FEFEFE"/>
<path fill-rule="evenodd" clip-rule="evenodd" d="M177.306 250.102C178.133 248.825 176.823 244.751 175.806 246.735C169.363 259.319 149.179 275.735 129.574 277.591C156.821 275.579 173.637 262.077 177.306 250.102Z" fill="#FEFEFE"/>
<path fill-rule="evenodd" clip-rule="evenodd" d="M93.2172 16.4933C90.5717 16.6365 87.1724 16.7681 84.6608 17.1145C98.701 50.4891 98.4702 70.0386 86.2121 98.953C103.43 71.2706 99.8668 37.6754 93.2172 16.4933Z" fill="#FEFEFE"/>
<path fill-rule="evenodd" clip-rule="evenodd" d="M19.559 154.818C19.312 154.171 18.4913 153.032 18.2859 152.309C25.8127 150.605 42.0195 146.275 56.7985 134.796C47.4652 144.541 32.8871 151.025 19.559 154.818Z" fill="#FEFEFE"/>
<path fill-rule="evenodd" clip-rule="evenodd" d="M35.6769 153.903C63.2149 143.116 95.1633 118.716 112.891 94.9315C93.47 123.039 67.8099 142.637 35.6769 153.903Z" fill="#E08519"/>
<path fill-rule="evenodd" clip-rule="evenodd" d="M85.9708 9.80941C84.7912 9.97451 82.859 10.1084 82.0117 10.2297C80.9741 8.07752 78.5409 4.02953 74.0532 0.369476C82.0141 1.62567 84.0248 4.56872 85.9708 9.80941Z" fill="#FEFEFE"/>
<path fill-rule="evenodd" clip-rule="evenodd" d="M12.5642 155.379C12.4176 155.071 11.5023 153.328 11.4065 153.14C10.1149 153.307 7.0804 153.816 3.06824 153.572C6.38092 156.226 10.3538 155.802 12.5642 155.379Z" fill="#FEFEFE"/>
<path fill-rule="evenodd" clip-rule="evenodd" d="M58.7663 108.753H58.7675L58.9741 109.052C59.8906 110.25 60.8244 111.253 61.757 112.071C62.0744 112.317 62.3688 112.559 62.6412 112.793C68.552 117.249 74.2021 114.294 75.1601 105.814C76.0131 100.385 72.8528 89.8537 69.5689 86.9926C70.55 86.6658 71.1399 86.4153 72.4095 86.1694C63.1075 87.033 56.9253 89.1771 52.8 91.4355C52.8762 91.9239 54.5557 102.548 58.7663 108.753Z" fill="url(#paint5_linear_20_425)"/>
<path fill-rule="evenodd" clip-rule="evenodd" d="M68.4679 81.4471C64.4049 76.6556 58.7584 81.8894 55.5057 77.9857C54.1321 76.3369 54.4969 73.9954 56.3933 72.7923C58.2886 71.5904 61.2065 71.849 61.3185 74.7147C59.0942 74.0785 58.479 77.2491 62.5685 77.0528C63.0025 77.0308 63.8024 77.0839 64.3334 77.2144C60.6548 75.3544 64.1291 71.8352 65.7138 74.657C63.9825 75.0819 64.4811 76.5632 65.5857 77.2375C66.9812 78.0884 68.0304 79.3608 68.4679 81.4471Z" fill="#E08519"/>
<path fill-rule="evenodd" clip-rule="evenodd" d="M79.4136 95.4916C80.1131 96.0931 80.6602 96.8909 80.9557 97.8365C81.8006 100.529 80.3035 103.396 77.613 104.241C74.9213 105.086 72.0541 103.589 71.2092 100.896C70.9126 99.9518 70.9045 98.9854 71.1353 98.0917C72.5585 98.6147 74.1583 98.6898 75.7165 98.2002C77.2748 97.7119 78.5456 96.7351 79.4136 95.4916Z" fill="#E08519"/>
<path fill-rule="evenodd" clip-rule="evenodd" d="M74.62 108.623C74.8624 107.767 75.0448 106.831 75.1602 105.814L77.4179 107.872C77.8496 107.085 79.2774 104.527 80.7837 101.411L80.7791 101.4L80.4582 101.265L79.6502 102.611C79.6502 102.611 74.6881 102.901 74.9386 104.4C75.1833 105.877 74.6373 108.54 74.62 108.623Z" fill="#E08519"/>
<path fill-rule="evenodd" clip-rule="evenodd" d="M52.881 91.9216C55.3545 90.1747 63.425 87.5399 66.9131 87.8482C70.9461 88.2038 75.8089 103.709 74.6189 108.624L74.6304 108.583L74.642 108.544L74.6535 108.503L74.6639 108.463L74.7066 108.306L74.7077 108.299L74.7181 108.258L74.7285 108.217L74.7389 108.176L74.7493 108.134L74.7597 108.093L74.7701 108.051L74.7805 108.01L74.7897 107.967L74.8001 107.925L74.8093 107.883L74.8197 107.841L74.829 107.798L74.8382 107.756L74.867 107.627L74.8763 107.584L74.8936 107.498L74.9028 107.454L74.9121 107.41L74.9201 107.368L74.9259 107.338L74.9282 107.324L74.9374 107.28L74.9628 107.147L74.9709 107.103L74.979 107.059L74.9871 107.014L74.994 106.969H74.9952L75.0021 106.924L75.0102 106.879L75.054 106.608L75.0563 106.592L75.061 106.562L75.1083 106.238L75.1117 106.206L75.114 106.191L75.1198 106.145L75.1602 105.814C76.0132 100.385 72.8529 89.8537 69.569 86.9926C70.5502 86.6658 71.14 86.4153 72.4097 86.1694C63.552 86.9926 56.8804 88.9704 52.7979 91.4158C52.8036 91.4551 52.8313 91.6364 52.881 91.9216Z" fill="#E08519"/>
<path fill-rule="evenodd" clip-rule="evenodd" d="M79.1008 95.0471C79.7448 95.6001 80.2481 96.3344 80.5205 97.2038C81.2985 99.6827 79.9203 102.322 77.4433 103.1C74.9651 103.879 72.3265 102.5 71.5485 100.021C71.275 99.1516 71.2681 98.2614 71.4804 97.4394C72.7905 97.9208 74.2633 97.9901 75.6981 97.5398C77.1316 97.0895 78.3009 96.1913 79.1008 95.0471Z" fill="url(#paint6_linear_20_425)"/>
<path fill-rule="evenodd" clip-rule="evenodd" d="M75.3725 96.5018C76.2163 96.2363 77.1166 96.7062 77.3809 97.5513C77.6464 98.3965 77.1766 99.2959 76.3317 99.5615C75.4879 99.8259 74.5876 99.356 74.3233 98.512C74.0578 97.6668 74.5276 96.7674 75.3725 96.5018Z" fill="url(#paint7_linear_20_425)"/>
<path fill-rule="evenodd" clip-rule="evenodd" d="M78.2882 29.2631C78.2478 30.2976 77.6256 31.1324 77.0139 31.7789C73.1679 36.9273 61.3323 43.5835 56.8884 57.7018C60.6363 41.8562 69.8345 34.416 78.2882 29.2631Z" fill="#FEFEFE"/>
<path fill-rule="evenodd" clip-rule="evenodd" d="M50.741 74.9838C51.8086 74.9584 52.4943 76.9292 52.5497 79.3031C52.6051 81.6769 52.0095 83.5566 50.9407 83.5808C49.873 83.6051 48.5641 81.767 48.5098 79.3931C48.4556 77.0193 49.6733 75.008 50.741 74.9838Z" fill="url(#paint8_linear_20_425)"/>
<path fill-rule="evenodd" clip-rule="evenodd" d="M67.9403 80.8363C64.1174 76.3288 58.517 81.3063 55.4571 77.6335C54.1644 76.0829 54.5083 73.8799 56.2917 72.7484C58.075 71.6169 60.8648 71.6423 60.971 74.3395C58.8783 73.7414 57.7622 76.9673 62.101 76.7549C62.7093 76.726 63.2621 76.7849 63.7619 76.9084V76.9073C60.3003 75.1592 63.568 71.8479 65.0593 74.5023C63.4307 74.9017 63.8381 76.7156 64.922 77.2733C65.7565 77.7039 67.5294 78.8724 67.9403 80.8363Z" fill="url(#paint9_linear_20_425)"/>
<path fill-rule="evenodd" clip-rule="evenodd" d="M50.1695 76.5909C50.4869 76.6844 50.0575 77.1428 49.8059 77.9729C49.5543 78.8031 49.5785 79.6921 49.2611 79.5986C48.9437 79.5051 48.8167 78.7581 49.0672 77.9279C49.3177 77.0978 49.8521 76.4985 50.1695 76.5909Z" fill="#FEFEFE"/>
<path fill-rule="evenodd" clip-rule="evenodd" d="M53.9451 91.6641C54.5199 91.9701 54.8061 92.5428 54.9885 93.0589C56.7534 96.6 56.9738 104.975 63.6477 111.308C55.7861 104.888 54.3283 97.7557 53.9451 91.6641Z" fill="#FEFEFE"/>
<path fill-rule="evenodd" clip-rule="evenodd" d="M135.075 24.3168C134.386 24.0917 133.073 23.213 132.321 23.0479C132.515 32.6241 132.29 53.3271 124.757 73.1479C131.942 60.3181 134.664 41.3724 135.075 24.3168Z" fill="#FEFEFE"/>
<path fill-rule="evenodd" clip-rule="evenodd" d="M76.5441 81.5337C69.8645 65.6558 69.9741 56.3556 75.8054 42.5998C69.2977 53.2913 65.1482 68.8933 76.5441 81.5337Z" fill="#E08519"/>
<path fill-rule="evenodd" clip-rule="evenodd" d="M69.9003 68.5088C70.0204 69.0942 68.8823 66.5714 64.0483 65.971C63.4977 65.904 63.3142 65.8151 63.2299 65.2367C62.5674 60.6726 58.0497 58.7894 53.5631 59.384C57.4598 58.9684 62.4727 61.5385 62.497 65.4364C62.5028 66.5356 63.0556 66.6383 63.6974 66.7041C67.3136 67.0771 68.6618 68.8806 69.5425 72.1019C69.7018 72.6838 70.9507 72.4517 71.23 73.0775C71.8752 74.5288 70.609 69.5444 69.9003 68.5088Z" fill="#E08519"/>
<path fill-rule="evenodd" clip-rule="evenodd" d="M53.0309 59.682L52.6985 60.9566C55.9281 60.7257 58.3878 61.3099 61.0298 63.4586C59.5409 61.1067 57.1608 59.6254 53.0309 59.682Z" fill="#FEFEFE"/>
<path fill-rule="evenodd" clip-rule="evenodd" d="M52.1815 84.0357C54.3757 82.1376 53.1534 74.2355 50.9788 74.4364C54.7878 74.1316 53.51 81.2347 54.9067 81.8835C54.3896 82.335 52.7067 83.6801 52.1815 84.0357Z" fill="#E08519"/>
<path fill-rule="evenodd" clip-rule="evenodd" d="M50.9221 89.5904C57.0235 90.879 54.6088 84.0519 58.1327 83.6316C52.7481 84.1639 56.2617 88.3539 50.9221 89.5904Z" fill="#E08519"/>
<path fill-rule="evenodd" clip-rule="evenodd" d="M50.1349 84.6303C49.5474 84.6072 50.3 89.6378 50.9221 89.5904C52.5784 89.4646 53.9739 89.0258 54.6353 87.3759C55.2251 85.9004 55.5576 84.2066 57.3605 83.7251C59.5235 83.149 60.0718 85.0621 59.6609 85.868C61.1268 84.2851 60.5901 83.2136 59.9402 82.4493C59.3585 81.7635 58.0911 81.1942 56.9299 81.2959C53.331 81.6111 53.0482 84.7423 50.1349 84.6303Z" fill="url(#paint10_linear_20_425)"/>
<path fill-rule="evenodd" clip-rule="evenodd" d="M58.299 81.4529C61.1626 81.9771 62.2684 84.5495 59.661 85.868C61.128 84.2839 60.5901 83.2136 59.9403 82.4481C59.5871 82.0325 58.9811 81.6596 58.299 81.4529ZM59.6633 85.8623L59.7314 85.6868C59.7129 85.7491 59.691 85.808 59.6633 85.8623Z" fill="#E08519"/>
<path fill-rule="evenodd" clip-rule="evenodd" d="M50.6082 64.0325C50.5009 64.5486 50.3428 65.4284 51.1484 65.4134C53.839 65.7886 56.9 65.4849 59.3032 68.0377C57.416 63.4921 50.4755 65.5519 50.6082 64.0325Z" fill="#E08519"/>
<path fill-rule="evenodd" clip-rule="evenodd" d="M59.6979 69.0261C59.3274 70.8018 59.9807 71.214 60.9087 71.2267C63.193 71.2579 65.3907 71.6447 66.4664 73.7749C66.0463 71.3641 63.9548 70.2442 61.0276 70.0236C60.6756 69.9982 59.5894 69.8828 59.6979 69.0261Z" fill="#E08519"/>
<path fill-rule="evenodd" clip-rule="evenodd" d="M66.6822 74.7482C66.4294 76.2665 67.2189 76.6995 67.6679 76.7075C69.3693 76.7399 70.7729 77.4384 72.2642 79.2557C71.6293 77.7294 70.796 76.4501 69.4663 75.9536C68.1204 75.4502 66.6464 75.9363 66.6822 74.7482Z" fill="#E08519"/>
<path fill-rule="evenodd" clip-rule="evenodd" d="M61.9395 67.1048C61.951 67.4212 62.1461 67.5701 62.3377 67.6602C63.5427 68.57 67.2501 68.4926 68.6422 72.103C67.4683 67.8241 64.5873 67.1741 61.9395 67.1048Z" fill="#FEFEFE"/>
<path fill-rule="evenodd" clip-rule="evenodd" d="M50.6994 72.79C50.0414 72.7242 49.7933 71.4033 49.9699 69.8724C50.1465 68.3402 50.6786 67.1775 51.3377 67.2434C51.9967 67.3092 52.6385 68.5931 52.4619 70.1241C52.2853 71.6562 51.3584 72.8558 50.6994 72.79Z" fill="#E08519"/>
<path fill-rule="evenodd" clip-rule="evenodd" d="M51.2362 67.1972C51.7763 67.293 51.9241 68.6231 51.714 70.146C51.5051 71.6689 51.018 72.8073 50.4778 72.7103C49.9376 72.6145 49.4632 71.3029 49.6733 69.7811C49.8834 68.2582 50.696 67.1002 51.2362 67.1972Z" fill="url(#paint11_linear_20_425)"/>
</g>
<path d="M251.186 289.333V226.333H275.145C280.054 226.333 284.172 227.174 287.5 228.856C290.848 230.537 293.375 232.896 295.081 235.931C296.807 238.946 297.67 242.463 297.67 246.482C297.67 250.522 296.797 254.029 295.05 257.003C293.323 259.956 290.775 262.243 287.406 263.863C284.037 265.462 279.898 266.262 274.989 266.262H257.924V256.787H273.43C276.3 256.787 278.65 256.398 280.48 255.619C282.311 254.819 283.662 253.66 284.536 252.142C285.43 250.604 285.877 248.718 285.877 246.482C285.877 244.247 285.43 242.34 284.536 240.761C283.642 239.161 282.279 237.951 280.449 237.131C278.619 236.29 276.258 235.87 273.367 235.87H262.76V289.333H251.186ZM284.193 260.786L300.01 289.333H287.094L271.558 260.786H284.193Z" fill="#E08519"/>
<path d="M302.175 289.333V226.333H343.73V235.9H313.749V253.004H341.577V262.571H313.749V279.766H343.98V289.333H302.175Z" fill="#E08519"/>
<path d="M346.581 235.9V226.333H397.558V235.9H377.81V289.333H366.329V235.9H346.581Z" fill="#E08519"/>
<path d="M401.236 289.333V226.333H425.195C430.104 226.333 434.222 227.174 437.55 228.856C440.898 230.537 443.425 232.896 445.131 235.931C446.857 238.946 447.72 242.463 447.72 246.482C447.72 250.522 446.847 254.029 445.1 257.003C443.373 259.956 440.825 262.243 437.456 263.863C434.087 265.462 429.948 266.262 425.039 266.262H407.974V256.787H423.48C426.35 256.787 428.7 256.398 430.53 255.619C432.36 254.819 433.712 253.66 434.586 252.142C435.48 250.604 435.927 248.718 435.927 246.482C435.927 244.247 435.48 242.34 434.586 240.761C433.692 239.161 432.329 237.951 430.499 237.131C428.669 236.29 426.308 235.87 423.417 235.87H412.81V289.333H401.236ZM434.243 260.786L450.06 289.333H437.144L421.608 260.786H434.243Z" fill="#E08519"/>
<path d="M463.799 226.333V289.333H452.225V226.333H463.799Z" fill="#E08519"/>
<path d="M467.375 235.9V226.333H518.352V235.9H498.604V289.333H487.123V235.9H467.375Z" fill="#E08519"/>
<path d="M362.231 46.5741V44.6237C362.231 37.0595 363.485 31.6196 365.987 28.3093C368.489 24.9937 372.538 23.3385 378.128 23.3385C383.306 23.3385 387.29 24.6879 390.064 27.3868C392.843 30.0857 394.232 33.9653 394.232 39.0309C394.232 42.5943 393.57 46.1946 392.251 49.8264C390.932 53.4582 388.642 57.8071 385.38 62.8674L370.768 85.8077H387.182V75.065H394.542V93.0555H362.019V86.0079L376.63 62.9674C379.751 58.0706 382.025 53.764 383.447 50.0478C384.87 46.3315 385.581 42.8948 385.581 39.7267C385.581 36.5587 384.962 34.1129 383.73 32.6791C382.498 31.2453 380.489 30.5284 377.71 30.5284C374.693 30.5284 372.598 31.472 371.431 33.3538C370.264 35.2356 369.683 39.4421 369.683 45.973V46.5741H362.22H362.231Z" fill="#E08519"/>
<path d="M436.432 44.3233V73.6101C436.432 80.4048 435.032 85.5863 432.237 89.1496C429.442 92.713 425.349 94.4948 419.965 94.4948C414.581 94.4948 410.602 92.7183 407.823 89.1708C405.044 85.6232 403.655 80.4363 403.655 73.6049V44.3181C403.655 37.4549 405.044 32.2417 407.823 28.6783C410.602 25.115 414.651 23.3333 419.965 23.3333C425.279 23.3333 429.398 25.1256 432.21 28.7047C435.021 32.2839 436.427 37.4918 436.427 44.3233M427.678 76.0561V41.7721C427.678 37.9399 427.043 35.1092 425.773 33.2748C424.502 31.4405 422.565 30.5285 419.959 30.5285C417.354 30.5285 415.482 31.4352 414.25 33.2538C413.017 35.0723 412.399 37.9082 412.399 41.7721V76.0561C412.399 79.9199 413.017 82.761 414.25 84.5744C415.482 86.393 417.387 87.2995 419.959 87.2995C422.532 87.2995 424.502 86.3824 425.773 84.5532C427.043 82.724 427.678 79.8881 427.678 76.0561Z" fill="#E08519"/>
<path d="M444.254 46.5741V44.6237C444.254 37.0595 445.508 31.6196 448.01 28.3093C450.512 24.9937 454.561 23.3385 460.151 23.3385C465.329 23.3385 469.313 24.6879 472.087 27.3868C474.866 30.0857 476.255 33.9653 476.255 39.0309C476.255 42.5943 475.593 46.1946 474.274 49.8264C472.955 53.4582 470.665 57.8071 467.403 62.8674L452.791 85.8077H469.205V75.065H476.565V93.0555H444.042V86.0079L458.653 62.9674C461.774 58.0706 464.048 53.764 465.471 50.0478C466.893 46.3315 467.604 42.8948 467.604 39.7267C467.604 36.5587 466.985 34.1129 465.753 32.6791C464.521 31.2453 462.512 30.5284 459.733 30.5284C456.716 30.5284 454.621 31.472 453.454 33.3538C452.287 35.2356 451.706 39.4421 451.706 45.973V46.5741H444.243H444.254Z" fill="#E08519"/>
<path d="M489.124 60.1159V24.7829H514.336V32.2312H496.533V51.6186C497.527 50.9862 498.585 50.5171 499.698 50.2218C500.81 49.9214 501.972 49.7737 503.171 49.7737C508.143 49.7737 511.921 51.624 514.493 55.3191C517.066 59.0142 518.352 64.4646 518.352 71.6597C518.352 79.456 516.963 85.2122 514.184 88.9284C511.405 92.6445 507.133 94.5 501.369 94.5C496.495 94.5 492.734 92.9767 490.074 89.93C487.414 86.8831 486.085 82.5607 486.085 76.9626V75.065H494.009V77.7112C494.009 80.9793 494.693 83.4251 496.066 85.0593C497.439 86.6934 499.48 87.5051 502.189 87.5051C504.897 87.5051 506.976 86.5668 508.105 84.6798C509.239 82.7979 509.804 79.4084 509.804 74.5116V69.6146C509.804 64.7862 509.212 61.4125 508.029 59.4939C506.846 57.5805 504.832 56.6211 501.982 56.6211C500.783 56.6211 499.649 56.9109 498.585 57.496C497.521 58.0811 496.544 58.9563 495.654 60.1211H489.119L489.124 60.1159Z" fill="#E08519"/>
<path d="M359.776 113.266V207.568H349.301V113.266H359.776ZM396.907 113.266L371.664 160.417L396.907 207.568H385.072L359.828 160.417L385.072 113.266H396.907Z" fill="url(#paint12_linear_20_425)"/>
<path d="M145.046 113.266V160.402L169.966 113.266H181.768L156.84 160.417L181.768 207.568H169.965L145.046 160.433V207.568H134.618V113.266H145.046Z" fill="url(#paint13_linear_20_425)"/>
<path d="M213.277 113.266L234.041 207.568H223.315L207.914 137.62L192.512 207.568H181.787L202.551 113.266H213.277Z" fill="url(#paint14_linear_20_425)"/>
<path d="M323.229 113.266L343.993 207.568H333.267L317.866 137.62L302.464 207.568H291.739L312.504 113.266H323.229Z" fill="url(#paint15_linear_20_425)"/>
<path d="M412.167 113.266V181.373C412.167 185.713 413.926 189.643 416.77 192.487C419.614 195.331 423.544 197.091 427.885 197.091C432.224 197.091 436.155 195.331 438.999 192.487C441.843 189.644 443.602 185.713 443.602 181.373V113.266H454.078V181.373C454.078 188.605 451.145 195.154 446.406 199.894C441.666 204.633 435.116 207.566 427.885 207.566C420.652 207.566 414.103 204.633 409.363 199.894C404.624 195.154 401.692 188.605 401.692 181.373V113.266H412.167Z" fill="url(#paint16_linear_20_425)"/>
<path d="M516.947 207.566H475.945L475.945 207.568H464.555L501.004 123.743H464.557V113.267H505.559L505.559 113.266H516.949L480.501 197.091H516.947V207.566Z" fill="url(#paint17_linear_20_425)"/>
<path d="M255.081 170.896C268.102 170.896 278.658 160.341 278.658 147.32C278.658 134.298 268.103 123.743 255.081 123.743H249.842V207.568H239.366V113.266C244.605 113.266 249.843 113.267 255.081 113.267C273.887 113.267 289.133 128.514 289.133 147.32C289.133 159.718 282.427 171.059 271.656 177.072L291.739 207.568L279.25 207.567L261.59 180.75C259.483 181.158 257.307 181.371 255.081 181.371L255.081 170.896Z" fill="url(#paint18_linear_20_425)"/>
<path d="M134.618 113.266V207.568H145.046V160.433L169.965 207.568H181.768L156.839 160.417L181.768 113.266H169.965L145.046 160.402V113.266H134.618ZM289.133 147.319C289.133 128.66 274.124 113.506 255.521 113.27L255.081 113.268C249.843 113.268 244.606 113.266 239.366 113.266V207.568H249.841V123.743H255.081C268.103 123.743 278.658 134.298 278.658 147.319L278.651 147.928C278.328 160.668 267.899 170.896 255.081 170.896V181.372C257.307 181.372 259.483 181.158 261.589 180.75L279.25 207.568H291.739L271.656 177.072C282.259 171.153 288.923 160.07 289.129 147.9L289.133 147.319ZM349.301 113.266V207.568H359.776V113.266H349.301ZM463.292 112.002H504.63L504.63 112H518.88L482.431 195.825H518.213V208.831H476.874L476.873 208.833H462.624L499.073 125.008H463.292V112.002ZM202.551 113.266L181.787 207.568H192.512L207.914 137.62L223.315 207.568H234.04L213.277 113.266H202.551ZM312.504 113.266L291.739 207.568H302.464L317.866 137.62L333.268 207.568H343.993L323.229 113.266H312.504ZM385.072 113.266L359.828 160.417L385.072 207.568H396.907L371.664 160.417L396.907 113.266H385.072ZM412.167 181.373V113.266H401.692V181.373L401.7 182.049C401.877 189.013 404.772 195.303 409.364 199.894C413.955 204.485 420.245 207.381 427.208 207.558L427.885 207.566C434.89 207.566 441.256 204.814 445.956 200.333L446.406 199.894C450.997 195.303 453.892 189.012 454.069 182.049L454.077 181.373V113.266H443.603V181.373L443.597 181.779C443.491 185.958 441.754 189.733 438.999 192.487L438.729 192.751C435.909 195.439 432.089 197.091 427.885 197.091V195.825C431.875 195.825 435.488 194.208 438.104 191.592L438.347 191.344C440.82 188.75 442.337 185.239 442.337 181.373V112.001H455.343V181.373C455.343 188.717 452.457 195.391 447.761 200.318L447.301 200.789C442.334 205.756 435.465 208.831 427.885 208.831C420.54 208.831 413.866 205.945 408.94 201.249L408.468 200.789C403.501 195.822 400.426 188.954 400.426 181.373V112.001H413.432V181.373C413.432 185.364 415.049 188.976 417.665 191.592L417.913 191.835C420.507 194.308 424.018 195.825 427.885 195.825V197.091L427.479 197.085C423.435 196.983 419.769 195.353 417.04 192.751L416.77 192.487C414.015 189.732 412.278 185.957 412.172 181.779L412.167 181.373ZM290.399 147.319C290.399 159.721 283.928 171.103 273.447 177.49L291.147 204.368L311.486 112H324.246L345.568 208.833H332.25L317.865 143.506L303.481 208.833H278.568L260.992 182.143C259.07 182.468 257.095 182.637 255.081 182.637H253.815V169.63H255.081C267.403 169.63 277.392 159.641 277.392 147.319C277.392 134.997 267.404 125.008 255.081 125.008H251.107V208.833H238.101V112.001L255.081 112.002C274.586 112.002 290.399 127.815 290.399 147.319ZM464.557 123.743H501.003L464.555 207.568H475.945L475.945 207.566H516.947V197.091H480.5L516.949 113.266H505.559L505.559 113.268H464.557V123.743ZM146.312 155.298L169.203 112H183.869L158.271 160.417L181.286 203.95L201.533 112H214.294L235.615 208.833H222.297L207.913 143.506L193.529 208.833H169.202L146.312 165.536V208.833H133.352V112.001H146.312V155.298ZM361.042 155.468L384.314 112H399.02L373.099 160.417L399.02 208.833H384.314L361.042 165.365V208.833H348.035V112.001H361.042V155.468Z" fill="#E2B85D"/>
<defs>
<linearGradient id="paint0_linear_20_425" x1="95.8007" y1="343" x2="95.8007" y2="93.4872" gradientUnits="userSpaceOnUse">
<stop stop-color="#F0A918"/>
<stop offset="1" stop-color="#F0A918" stop-opacity="0"/>
</linearGradient>
<linearGradient id="paint1_linear_20_425" x1="67.1457" y1="26.29" x2="67.1457" y2="114.857" gradientUnits="userSpaceOnUse">
<stop stop-color="#F0A918"/>
<stop offset="1" stop-color="#F0A918" stop-opacity="0"/>
</linearGradient>
<linearGradient id="paint2_linear_20_425" x1="85.9772" y1="0" x2="85.9772" y2="11.2365" gradientUnits="userSpaceOnUse">
<stop stop-color="#F0A918"/>
<stop offset="1" stop-color="#F0A918" stop-opacity="0"/>
</linearGradient>
<linearGradient id="paint3_linear_20_425" x1="77.4612" y1="14.1903" x2="77.4612" y2="158.847" gradientUnits="userSpaceOnUse">
<stop stop-color="#F0A918"/>
<stop offset="1" stop-color="#F0A918" stop-opacity="0"/>
</linearGradient>
<linearGradient id="paint4_linear_20_425" x1="8.37604" y1="151.99" x2="8.37604" y2="160.24" gradientUnits="userSpaceOnUse">
<stop stop-color="#F0A918"/>
<stop offset="1" stop-color="#F0A918" stop-opacity="0"/>
</linearGradient>
<linearGradient id="paint5_linear_20_425" x1="64.0506" y1="86.1694" x2="64.0506" y2="114.857" gradientUnits="userSpaceOnUse">
<stop stop-color="#F0A918"/>
<stop offset="1" stop-color="#F0A918" stop-opacity="0"/>
</linearGradient>
<linearGradient id="paint6_linear_20_425" x1="77.6522" y1="103.761" x2="75.9787" y2="95.4929" gradientUnits="userSpaceOnUse">
<stop stop-color="#D89B23"/>
<stop offset="1" stop-color="#FFFBDB"/>
</linearGradient>
<linearGradient id="paint7_linear_20_425" x1="75.8521" y1="96.4276" x2="75.8521" y2="99.6351" gradientUnits="userSpaceOnUse">
<stop stop-color="white"/>
<stop offset="1" stop-color="white" stop-opacity="0"/>
</linearGradient>
<linearGradient id="paint8_linear_20_425" x1="51.4508" y1="79.7291" x2="49.9318" y2="79.5364" gradientUnits="userSpaceOnUse">
<stop stop-color="#009846"/>
<stop offset="1" stop-color="#51B36E"/>
</linearGradient>
<linearGradient id="paint9_linear_20_425" x1="61.3095" y1="72.0423" x2="61.3095" y2="80.8363" gradientUnits="userSpaceOnUse">
<stop stop-color="white"/>
<stop offset="1" stop-color="white" stop-opacity="0"/>
</linearGradient>
<linearGradient id="paint10_linear_20_425" x1="55.2597" y1="81.2841" x2="55.2597" y2="89.5908" gradientUnits="userSpaceOnUse">
<stop stop-color="#F0A918"/>
<stop offset="1" stop-color="#F0A918" stop-opacity="0"/>
</linearGradient>
<linearGradient id="paint11_linear_20_425" x1="50.714" y1="67.1915" x2="50.714" y2="72.7161" gradientUnits="userSpaceOnUse">
<stop stop-color="white"/>
<stop offset="1" stop-color="white" stop-opacity="0"/>
</linearGradient>
<linearGradient id="paint12_linear_20_425" x1="265.115" y1="112.95" x2="265.115" y2="210.416" gradientUnits="userSpaceOnUse">
<stop stop-color="#F0DF9D"/>
<stop offset="0.49" stop-color="#E5BE65"/>
<stop offset="0.504808" stop-color="#E1841A"/>
<stop offset="1" stop-color="#DF871B"/>
</linearGradient>
<linearGradient id="paint13_linear_20_425" x1="265.115" y1="112.95" x2="265.115" y2="210.416" gradientUnits="userSpaceOnUse">
<stop stop-color="#F0DF9D"/>
<stop offset="0.49" stop-color="#E5BE65"/>
<stop offset="0.504808" stop-color="#E1841A"/>
<stop offset="1" stop-color="#DF871B"/>
</linearGradient>
<linearGradient id="paint14_linear_20_425" x1="265.115" y1="112.95" x2="265.115" y2="210.416" gradientUnits="userSpaceOnUse">
<stop stop-color="#F0DF9D"/>
<stop offset="0.49" stop-color="#E5BE65"/>
<stop offset="0.504808" stop-color="#E1841A"/>
<stop offset="1" stop-color="#DF871B"/>
</linearGradient>
<linearGradient id="paint15_linear_20_425" x1="265.115" y1="112.95" x2="265.115" y2="210.416" gradientUnits="userSpaceOnUse">
<stop stop-color="#F0DF9D"/>
<stop offset="0.49" stop-color="#E5BE65"/>
<stop offset="0.504808" stop-color="#E1841A"/>
<stop offset="1" stop-color="#DF871B"/>
</linearGradient>
<linearGradient id="paint16_linear_20_425" x1="265.115" y1="112.95" x2="265.115" y2="210.416" gradientUnits="userSpaceOnUse">
<stop stop-color="#F0DF9D"/>
<stop offset="0.49" stop-color="#E5BE65"/>
<stop offset="0.504808" stop-color="#E1841A"/>
<stop offset="1" stop-color="#DF871B"/>
</linearGradient>
<linearGradient id="paint17_linear_20_425" x1="265.115" y1="112.95" x2="265.115" y2="210.416" gradientUnits="userSpaceOnUse">
<stop stop-color="#F0DF9D"/>
<stop offset="0.49" stop-color="#E5BE65"/>
<stop offset="0.504808" stop-color="#E1841A"/>
<stop offset="1" stop-color="#DF871B"/>
</linearGradient>
<linearGradient id="paint18_linear_20_425" x1="265.115" y1="112.95" x2="265.115" y2="210.416" gradientUnits="userSpaceOnUse">
<stop stop-color="#F0DF9D"/>
<stop offset="0.49" stop-color="#E5BE65"/>
<stop offset="0.504808" stop-color="#E1841A"/>
<stop offset="1" stop-color="#DF871B"/>
</linearGradient>
<clipPath id="clip0_20_425">
<rect width="187.833" height="343" fill="white" transform="translate(0.352295)"/>
</clipPath>
</defs>
</svg>
