<svg width="235" height="33" viewBox="0 0 235 33" fill="none" xmlns="http://www.w3.org/2000/svg">
<path fill-rule="evenodd" clip-rule="evenodd" d="M4.44556 7.14588C4.47384 7.15484 4.43527 7.19698 4.41298 7.27498C4.39069 7.35295 4.39241 7.43542 4.36412 7.42647C4.33583 7.41753 4.32468 7.34851 4.34697 7.27049C4.36926 7.19339 4.41727 7.13691 4.44556 7.14588ZM5.23163 10.1742C5.31306 10.2863 5.39707 10.3795 5.48022 10.4557C5.50851 10.479 5.53508 10.5014 5.55908 10.5229C6.02284 10.8887 6.46945 10.7193 6.62804 10.1339C6.65119 10.0361 6.64861 9.89178 6.62804 9.72684C6.48831 9.68291 6.37087 9.56996 6.32372 9.41309C6.29029 9.30189 6.28772 9.17913 6.3323 9.08407C6.38459 9.10378 6.43945 9.11636 6.49603 9.1208C6.35545 8.652 6.13685 8.2136 5.94055 8.19564C5.62937 8.16698 4.90931 8.41258 4.68815 8.57578C4.72329 8.78735 4.88359 9.66051 5.23163 10.1742ZM7.03608 8.8976C7.09351 8.9496 7.13809 9.01775 7.16295 9.09935C7.23238 9.33062 7.10895 9.57716 6.88863 9.64975C6.66748 9.7224 6.43174 9.59418 6.3623 9.36291C6.3383 9.28131 6.33744 9.19884 6.3563 9.12175C6.42402 9.14771 6.49603 9.16029 6.56975 9.15935V9.16204C6.56975 9.25796 6.64433 9.336 6.73519 9.336C6.82606 9.336 6.90149 9.25796 6.90149 9.16204C6.90149 9.12531 6.89035 9.09127 6.87235 9.06342C6.9375 9.01949 6.99321 8.96218 7.03608 8.8976ZM6.95464 2.73069C6.95121 2.82751 6.89549 2.90551 6.84063 2.96557C6.49775 3.44609 5.44164 4.06645 5.04475 5.38428C5.37907 3.90598 6.20028 3.2121 6.95464 2.73069ZM4.46356 15.5639C4.4927 15.8149 4.37869 16.0336 4.26039 16.2057C3.55661 17.5532 1.05267 19.4806 0.539193 23.01C0.827222 19.0817 2.68911 17.0368 4.46356 15.5639ZM15.7909 23.3337C15.8646 23.2145 15.748 22.8343 15.6572 23.0199C15.082 24.1943 13.2809 25.7255 11.5313 25.8985C13.9624 25.7112 15.4634 24.4516 15.7909 23.3337ZM1.08953 14.4961C1.07667 14.4675 0.994378 14.3052 0.985804 14.2873C0.870938 14.3025 0.600055 14.35 0.241737 14.3276C0.537478 14.5751 0.891513 14.5356 1.08953 14.4961ZM1.71359 14.4441C1.6913 14.3841 1.61844 14.2774 1.59958 14.2102C2.27164 14.0515 3.71777 13.6472 5.03618 12.5768C4.20296 13.4858 2.90255 14.0909 1.71273 14.445L1.71359 14.4441ZM8.28676 1.53927C8.05106 1.55271 7.74756 1.56436 7.52298 1.59753C8.77622 4.71103 8.75564 6.53537 7.66102 9.23287C9.19716 6.65012 8.87913 3.51601 8.28589 1.54016L8.28676 1.53927ZM12.0217 2.269C11.9599 2.24748 11.8433 2.16591 11.7756 2.15066C11.7928 3.04446 11.7731 4.97548 11.101 6.82493C11.7423 5.62812 11.9848 3.86026 12.0217 2.269ZM7.63956 0.915309C7.53411 0.930553 7.36182 0.943098 7.2864 0.954756C7.1938 0.753942 6.97693 0.376524 6.5766 0.0349629C7.28727 0.152402 7.46552 0.426727 7.63956 0.915309ZM4.70015 5.56807L4.67015 5.68729C4.95817 5.66578 5.17762 5.72047 5.41336 5.92038C5.28049 5.70074 5.06876 5.56268 4.70015 5.56807ZM5.49479 6.26015C5.49565 6.28973 5.51365 6.30318 5.53079 6.31215C5.63795 6.39731 5.96884 6.39014 6.09313 6.72632C5.98855 6.32738 5.73139 6.26642 5.49479 6.26015ZM6.0777 7.59862C5.7151 7.15125 5.21105 7.63985 4.92131 7.27585C4.79873 7.12167 4.8313 6.90383 5.00017 6.79176C5.16905 6.6797 5.42964 6.70391 5.43993 6.97106C5.24105 6.91189 5.1862 7.20773 5.55137 7.18891C5.58994 7.18711 5.66109 7.19159 5.7091 7.20415C5.38079 7.03023 5.6911 6.70212 5.83254 6.96568C5.67824 7.00513 5.72281 7.14319 5.8214 7.20684C5.94569 7.28662 6.03913 7.40495 6.07856 7.59949L6.0777 7.59862ZM4.78159 8.55156C4.83302 8.58022 4.85873 8.63316 4.87502 8.68153C5.03275 9.01236 5.05247 9.79316 5.64737 10.384C4.94617 9.78509 4.81588 9.11993 4.78159 8.55156ZM7.51098 8.57847C6.84749 7.82269 6.44202 6.81417 6.44202 5.70702C6.44202 4.59986 6.82349 3.65138 7.45265 2.90371C7.39869 2.74503 7.34036 2.58725 7.28553 2.45278C6.09999 3.06149 5.17162 4.13369 4.71644 5.44345L4.71129 5.45869L4.70015 5.49097C4.689 5.52145 4.67615 5.53937 4.64785 5.54207C4.60671 5.54565 4.58956 5.55999 4.56385 5.64606C4.53813 5.73212 4.4867 5.95624 4.47813 6.00465C4.46956 6.05306 4.47898 6.10416 4.53213 6.10327C4.51927 6.16423 4.50727 6.22519 4.49613 6.28704C4.51156 6.27359 4.52699 6.26642 4.53985 6.26911C4.58785 6.27808 4.60157 6.40179 4.58271 6.54433C4.56385 6.68598 4.52099 6.79266 4.47212 6.7837C4.45841 6.781 4.4447 6.76935 4.4327 6.74963C4.42412 6.84555 4.41727 6.94237 4.41298 7.04009C4.43955 7.0123 4.46784 6.99616 4.49527 6.99616C4.59042 6.99347 4.65215 7.17725 4.65643 7.39869C4.66157 7.62015 4.60843 7.79585 4.51327 7.7976C4.48584 7.7976 4.45584 7.78415 4.42841 7.75905C4.4327 7.8048 4.43698 7.85055 4.44212 7.89622C4.70186 7.90698 4.72758 7.61476 5.04818 7.58516C5.15191 7.57527 5.26505 7.62909 5.31649 7.69273C5.37479 7.76444 5.42279 7.86393 5.29163 8.01185C5.32849 7.93658 5.27963 7.75818 5.08676 7.81193C4.9256 7.8568 4.89645 8.01455 4.8433 8.15265C4.78415 8.30684 4.65986 8.34713 4.51156 8.35884C4.52785 8.44218 4.54585 8.52378 4.56556 8.60538C4.60328 8.58022 4.641 8.55425 4.67872 8.52916C5.04304 8.30145 5.63795 8.1168 6.42916 8.03964C6.31601 8.06298 6.26287 8.08625 6.17543 8.1168C6.34344 8.26916 6.50717 8.65644 6.60232 9.05447C6.63233 9.01324 6.68033 8.98727 6.73348 8.98727C6.77891 8.98727 6.8192 9.00611 6.84921 9.03658C6.9075 9.00247 6.97093 8.95047 7.03608 8.8528C7.1158 8.92451 7.16038 9.02487 7.19124 9.128C7.19466 9.13876 7.38065 9.08495 7.51011 8.57935L7.51098 8.57847ZM1.04409 14.1797C0.702065 14.2245 0.353175 14.2469 0 14.2469C0.323172 14.5239 0.679777 14.7606 1.06295 14.9497C1.18639 14.9319 1.30983 14.9112 1.43241 14.8897C1.29269 14.6602 1.16239 14.4236 1.04409 14.1797ZM8.76851 1.03903C8.19935 0.412383 7.40036 0.0170332 6.51317 0C6.7952 0.316459 7.04036 0.667881 7.24267 1.04799C7.50582 1.00496 7.77069 0.984342 8.03476 0.984342C8.07673 0.984342 8.11876 0.984342 8.16073 0.986131C8.36647 0.991513 8.56967 1.00944 8.76851 1.03903ZM11.5391 8.72189C12.2831 11.1182 5.82996 15.6553 5.82996 20.1359C5.82996 23.1176 8.14102 25.5345 10.9921 25.5345C13.8433 25.5345 16.1543 23.1176 16.1543 20.1359C18.3145 25.5247 14.4682 32 8.5088 32C1.45814 32 -2.37793 23.3812 2.38479 17.2233C4.65729 14.2846 10.3724 11.3548 11.5382 8.72276L11.5391 8.72189ZM7.22981 1.43348C9.95746 6.57392 7.02836 13.1361 1.38356 14.1268C1.51214 14.3644 1.65101 14.5956 1.79931 14.8189C7.49724 13.553 11.8596 8.50945 12.3775 2.31293C10.801 1.44244 8.98713 1.13764 7.22981 1.43348Z" fill="#D0AB48"/>
<path d="M38.442 32.0001L30.2074 16.4271V32.0001H26.7622V0.842285H30.2074V16.4153L38.442 0.842285H42.3399L34.1054 16.4201L42.3399 32.0001H38.442Z" fill="white"/>
<path d="M50.9775 8.88817L50.9787 8.89364L45.8911 31.9977H42.3469L49.2066 0.842285H52.7508L59.6106 31.9977H56.0664L50.9787 8.89364L50.9799 8.88817H50.9775Z" fill="white"/>
<path d="M66.5625 4.30399H64.8317V31.9977H61.37V0.842285H66.5625C72.7762 0.842285 77.8131 5.87918 77.8131 12.0929C77.8131 16.189 75.5965 19.936 72.0381 21.9215L78.6737 31.9975L85.5334 0.842285H89.0776L95.9374 31.9977H92.3932L87.3055 8.89336L87.3067 8.88817H87.3044L87.3055 8.89336L82.2179 31.9977L78.6737 31.9975L74.5471 31.9977L68.7132 23.1383C68.0175 23.2727 67.2983 23.3435 66.5625 23.3435V19.8818C70.8638 19.8818 74.3514 16.3941 74.3514 12.0929C74.3514 7.79159 70.8638 4.30399 66.5625 4.30399Z" fill="white"/>
<path d="M101.151 0.842285H97.6898V31.9977H101.151V0.842285Z" fill="white"/>
<path d="M151.389 0.842285H147.625V0.844573H134.078V4.30399H146.118L134.078 32.0001H137.841V31.9977H151.387V28.5384H139.345L151.389 0.842285Z" fill="white"/>
<path d="M127.323 27.015C128.263 26.0766 128.844 24.7772 128.844 23.3435V0.842285H132.307V23.3435C132.307 25.7322 131.338 27.8969 129.772 29.4627C128.206 31.0285 126.041 31.9977 123.652 31.9977C121.263 31.9977 119.099 31.0285 117.533 29.4627C115.967 27.8969 114.998 25.7322 114.998 23.3435V0.842285H118.459V23.3435C118.459 24.7772 119.042 26.0766 119.98 27.015C120.92 27.9536 122.218 28.536 123.652 28.536C125.086 28.536 126.385 27.9536 127.323 27.015Z" fill="white"/>
<path d="M109.508 0.842285L101.168 16.4201L109.508 32.0001H113.418L105.077 16.4201L113.418 0.842285H109.508Z" fill="white"/>
<path d="M159.076 10.7767V9.87232C159.076 6.36481 159.525 3.84233 160.421 2.30733C161.318 0.769888 162.768 0.00238698 164.771 0.00238698C166.625 0.00238698 168.052 0.62812 169.046 1.87958C170.041 3.13105 170.539 4.93002 170.539 7.27896C170.539 8.93128 170.302 10.6007 169.829 12.2848C169.357 13.9689 168.537 15.9854 167.368 18.3319L162.134 28.9694H168.014V23.9879H170.65V32.3302H159V29.0622L164.234 18.3784C165.352 16.1076 166.166 14.1107 166.676 12.3875C167.185 10.6643 167.44 9.07061 167.44 7.6016C167.44 6.1326 167.218 4.99846 166.777 4.33362C166.336 3.66878 165.616 3.33636 164.621 3.33636C163.54 3.33636 162.789 3.77389 162.371 4.64649C161.953 5.51909 161.745 7.46961 161.745 10.4981V10.7767H159.072H159.076Z" fill="white"/>
<path d="M185.656 9.73305V23.3134C185.656 26.464 185.154 28.8667 184.153 30.5191C183.151 32.1714 181.685 32.9976 179.757 32.9976C177.828 32.9976 176.403 32.1738 175.407 30.5288C174.412 28.8839 173.914 26.4787 173.914 23.3109V9.73061C173.914 6.54818 174.412 4.1308 175.407 2.47848C176.403 0.826161 177.853 0 179.757 0C181.66 0 183.136 0.83105 184.143 2.49071C185.15 4.15036 185.654 6.56529 185.654 9.73305M182.519 24.4475V8.55003C182.519 6.77305 182.292 5.46048 181.837 4.60988C181.382 3.75928 180.688 3.33642 179.755 3.33642C178.822 3.33642 178.151 3.75683 177.709 4.6001C177.268 5.44337 177.046 6.75839 177.046 8.55003V24.4475C177.046 26.2392 177.268 27.5566 177.709 28.3974C178.151 29.2407 178.833 29.6611 179.755 29.6611C180.676 29.6611 181.382 29.2358 181.837 28.3877C182.292 27.5395 182.519 26.2245 182.519 24.4475Z" fill="white"/>
<path d="M188.457 10.7767V9.87232C188.457 6.36481 188.906 3.84233 189.803 2.30733C190.699 0.769888 192.149 0.00238698 194.152 0.00238698C196.007 0.00238698 197.434 0.62812 198.427 1.87958C199.423 3.13105 199.92 4.93002 199.92 7.27896C199.92 8.93128 199.683 10.6007 199.211 12.2848C198.738 13.9689 197.918 15.9854 196.749 18.3319L191.516 28.9694H197.395V23.9879H200.031V32.3302H188.381V29.0622L193.615 18.3784C194.733 16.1076 195.548 14.1107 196.057 12.3875C196.567 10.6643 196.821 9.07061 196.821 7.6016C196.821 6.1326 196.6 4.99846 196.158 4.33362C195.717 3.66878 194.998 3.33636 194.002 3.33636C192.921 3.33636 192.171 3.77389 191.753 4.64649C191.335 5.51909 191.127 7.46961 191.127 10.4981V10.7767H188.453H188.457Z" fill="white"/>
<path d="M204.53 17.0561V0.672172H213.561V4.12592H207.184V13.1159C207.54 12.8226 207.919 12.6051 208.318 12.4682C208.716 12.3289 209.132 12.2604 209.562 12.2604C211.343 12.2604 212.696 13.1184 213.618 14.8318C214.539 16.5452 215 19.0726 215 22.409C215 26.0241 214.502 28.6932 213.507 30.4164C212.511 32.1396 210.981 33 208.916 33C207.171 33 205.823 32.2936 204.87 30.8808C203.918 29.468 203.441 27.4637 203.441 24.8679V23.988H206.28V25.215C206.28 26.7305 206.525 27.8646 207.017 28.6223C207.509 29.38 208.24 29.7565 209.21 29.7565C210.18 29.7565 210.925 29.3214 211.329 28.4463C211.736 27.5737 211.938 26.0021 211.938 23.7314V21.4606C211.938 19.2217 211.726 17.6574 211.302 16.7676C210.878 15.8804 210.157 15.4355 209.136 15.4355C208.706 15.4355 208.3 15.57 207.919 15.8413C207.538 16.1126 207.188 16.5183 206.869 17.0585H204.528L204.53 17.0561Z" fill="white"/>
</svg>
