<svg width="150" height="38" viewBox="0 0 150 38" fill="none" xmlns="http://www.w3.org/2000/svg">
<g clip-path="url(#clip0_283_50)">
<path d="M89.6396 0.0848389H85.5293V37.0777H89.6396V0.0848389Z" fill="white"/>
<path fill-rule="evenodd" clip-rule="evenodd" d="M73.1985 9.63825L79.2407 37.0777H83.4491L75.304 0.0848389H71.0957L62.9507 37.0777H67.159L73.2013 9.63825H73.1985Z" fill="white"/>
<path fill-rule="evenodd" clip-rule="evenodd" d="M46.5151 4.19516H48.5703C53.6774 4.19516 57.8185 8.33628 57.8185 13.4434C57.8185 18.5505 53.6774 22.6916 48.5703 22.6916V26.8019C49.4438 26.8019 50.2978 26.7179 51.1238 26.5583L58.0509 37.0777H62.9508L55.0717 25.1135C59.2968 22.756 61.9288 18.3069 61.9288 13.4434C61.9288 6.06552 55.9481 0.0848389 48.5703 0.0848389C46.5151 0.0848389 44.4599 0.0848389 42.4048 0.0848389V37.0777H46.5151V4.19516Z" fill="white"/>
<path fill-rule="evenodd" clip-rule="evenodd" d="M149.29 0.0848389H144.821V0.0876394H128.735V4.19516H143.032L128.735 37.0805H133.204V37.0777H149.287V32.9702H134.99L149.29 0.0848389Z" fill="white"/>
<path fill-rule="evenodd" clip-rule="evenodd" d="M122.522 26.8019C122.522 28.5043 121.831 30.047 120.716 31.1614C119.602 32.2758 118.059 32.9674 116.357 32.9674C114.654 32.9674 113.112 32.2758 111.997 31.1614C110.883 30.047 110.191 28.5043 110.191 26.8019V0.0848389H106.081V26.8019C106.081 29.6383 107.232 32.2086 109.091 34.0678C110.95 35.9269 113.52 37.0777 116.357 37.0777C119.193 37.0777 121.763 35.9269 123.623 34.0678C125.482 32.2086 126.633 29.6383 126.633 26.8019V0.0848389H122.522V26.8019Z" fill="white"/>
<path fill-rule="evenodd" clip-rule="evenodd" d="M30.0652 9.63825L36.1075 37.0777H40.3158L32.1708 0.0848389H27.9625L19.8174 37.0777H24.0257L30.068 9.63825H30.0652Z" fill="white"/>
<path fill-rule="evenodd" clip-rule="evenodd" d="M5.40346 18.5897L15.1809 37.0805H19.8092L10.0318 18.5813L19.8092 0.0848389H15.1809L5.40346 18.5757V0.0848389H1.31274V37.0805H5.40346V18.5897Z" fill="white"/>
<path fill-rule="evenodd" clip-rule="evenodd" d="M99.5626 0.0848389L89.6592 18.5813L99.5626 37.0805H104.205L94.3015 18.5813L104.205 0.0848389H99.5626Z" fill="white"/>
</g>
<defs>
<clipPath id="clip0_283_50">
<rect width="149" height="38" fill="white" transform="translate(0.5)"/>
</clipPath>
</defs>
</svg>
