<svg width="62" height="37" viewBox="0 0 62 37" fill="none" xmlns="http://www.w3.org/2000/svg">
<g clip-path="url(#clip0_2003_71)">
<path d="M0.0839494 12.083V11.069C0.0839494 7.1363 0.581189 4.30806 1.57352 2.58701C2.56584 0.863207 4.17165 0.00267631 6.38878 0.00267631C8.44231 0.00267631 10.0223 0.704256 11.1222 2.10741C12.2244 3.51057 12.7754 5.5276 12.7754 8.16126C12.7754 10.0139 12.5128 11.8857 11.9897 13.7739C11.4667 15.6621 10.5583 17.9231 9.26459 20.554L3.46991 32.4808H9.97924V26.8956H12.8981V36.249H0V32.5849L5.79468 20.606C7.03239 18.0601 7.93431 15.8211 8.49828 13.889C9.06225 11.9569 9.34423 10.1701 9.34423 8.52301C9.34423 6.87595 9.09884 5.60434 8.61021 4.85891C8.12158 4.11348 7.32514 3.74077 6.22303 3.74077C5.02621 3.74077 4.19532 4.23133 3.73253 5.2097C3.26973 6.18807 3.0394 8.37502 3.0394 11.7705V12.083H0.0796434H0.0839494Z" fill="white"/>
<path d="M29.5115 10.9128V26.1392C29.5115 29.6718 28.9561 32.3657 27.8476 34.2183C26.739 36.0709 25.116 36.9973 22.9806 36.9973C20.8453 36.9973 19.2675 36.0737 18.1654 34.2293C17.0633 32.3849 16.5122 29.6882 16.5122 26.1365V10.9101C16.5122 7.3419 17.0633 4.63151 18.1654 2.7789C19.2675 0.926301 20.8733 0 22.9806 0C25.088 0 26.7218 0.931784 27.8368 2.79261C28.9518 4.65343 29.5093 7.36108 29.5093 10.9128M26.0394 27.4109V9.5864C26.0394 7.59403 25.7876 6.12236 25.2839 5.16865C24.7802 4.21495 24.0117 3.74083 22.9785 3.74083C21.9453 3.74083 21.2026 4.2122 20.714 5.15769C20.2254 6.10317 19.98 7.57758 19.98 9.5864V27.4109C19.98 29.4197 20.2254 30.8968 20.714 31.8396C21.2026 32.7851 21.9582 33.2564 22.9785 33.2564C23.9988 33.2564 24.7802 32.7796 25.2839 31.8286C25.7876 30.8776 26.0394 29.4032 26.0394 27.4109Z" fill="white"/>
<path d="M32.6134 12.083V11.069C32.6134 7.1363 33.1106 4.30806 34.1029 2.58701C35.0952 0.863207 36.7011 0.00267631 38.9182 0.00267631C40.9717 0.00267631 42.5517 0.704256 43.6517 2.10741C44.7538 3.51057 45.3048 5.5276 45.3048 8.16126C45.3048 10.0139 45.0422 11.8857 44.5191 13.7739C43.9961 15.6621 43.0877 17.9231 41.794 20.554L35.9993 32.4808H42.5086V26.8956H45.4275V36.249H32.5294V32.5849L38.3241 20.606C39.5618 18.0601 40.4637 15.8211 41.0277 13.889C41.5917 11.9569 41.8736 10.1701 41.8736 8.52301C41.8736 6.87595 41.6282 5.60434 41.1396 4.85891C40.651 4.11348 39.8545 3.74077 38.7524 3.74077C37.5556 3.74077 36.7247 4.23133 36.2619 5.2097C35.7991 6.18807 35.5688 8.37502 35.5688 11.7705V12.083H32.6091H32.6134Z" fill="white"/>
<path d="M50.4085 19.1235V0.753648H60.4071V4.62603H53.3467V14.7057C53.7407 14.3769 54.1604 14.133 54.6017 13.9795C55.0429 13.8233 55.5036 13.7465 55.9793 13.7465C57.951 13.7465 59.4492 14.7085 60.4695 16.6296C61.4898 18.5507 62 21.3844 62 25.1252C62 29.1785 61.4489 32.1712 60.3468 34.1033C59.2447 36.0353 57.5507 37 55.2647 37C53.3317 37 51.8399 36.208 50.7852 34.624C49.7304 33.0399 49.2031 30.7927 49.2031 27.8822V26.8956H52.3458V28.2714C52.3458 29.9705 52.617 31.2421 53.1616 32.0917C53.7062 32.9413 54.5156 33.3633 55.5897 33.3633C56.6638 33.3633 57.4882 32.8755 57.936 31.8944C58.3859 30.916 58.6097 29.1538 58.6097 26.6079V24.0619C58.6097 21.5516 58.3751 19.7976 57.9058 18.8001C57.4366 17.8053 56.638 17.3065 55.5079 17.3065C55.0322 17.3065 54.5823 17.4572 54.1604 17.7614C53.7385 18.0656 53.351 18.5206 52.998 19.1262H50.4064L50.4085 19.1235Z" fill="white"/>
</g>
<defs>
<clipPath id="clip0_2003_71">
<rect width="62" height="37" fill="white"/>
</clipPath>
</defs>
</svg>
