<svg width="512" height="513" viewBox="0 0 512 513" fill="none" xmlns="http://www.w3.org/2000/svg">
<path fill-rule="evenodd" clip-rule="evenodd" d="M14.0825 207.618C18.7765 206.715 22.3872 204.007 25.9979 201.299C32.1362 196.425 38.0939 191.37 44.4127 186.856C51.0925 181.982 58.6751 178.732 67.1603 178.191C66.9797 177.829 66.7992 177.468 66.6187 177.288C61.022 170.789 58.314 163.025 57.0502 154.901C55.967 147.68 55.2449 140.458 54.5227 133.237C53.9811 128.904 53.4395 124.391 51.0925 120.599C50.5509 119.877 50.5509 118.975 51.8147 119.155C57.4113 120.058 62.4663 118.072 67.7019 116.628C74.5623 114.642 81.6032 112.836 88.4636 110.85C89.0052 110.85 89.7273 110.128 89.7273 109.767C90.4495 105.434 90.9911 101.101 91.5327 96.588C91.5327 95.3242 91.3522 93.8799 90.9911 92.6161C90.8106 91.5329 90.9911 90.9913 92.0743 91.3524C98.032 92.7967 103.629 90.9913 109.406 90.0886C109.767 90.0886 110.309 89.3665 110.309 89.0054C112.655 80.5202 115.002 71.8544 117.349 63.3692C118.252 59.7585 119.155 56.1478 118.613 52.3565C118.613 51.2733 118.974 50.9122 119.877 51.4538C125.113 54.5229 130.89 54.7035 136.486 55.2451C145.333 56.1477 154.179 56.6894 162.664 59.3974C168.08 61.2028 173.135 63.7303 177.468 67.7021C177.649 65.8967 177.829 64.2719 178.19 62.8276C179.815 54.5229 183.967 47.482 189.022 40.8021C192.994 35.7471 197.147 30.8726 201.118 25.8176C203.826 22.3874 206.354 18.9572 207.076 14.6243H208.159C209.062 15.7075 209.784 16.9713 210.687 17.874C213.214 19.8599 215.742 21.6653 218.45 23.1095C225.671 27.2619 232.893 31.2337 240.114 35.386C240.475 35.5666 241.198 35.7471 241.559 35.386C245.35 32.4975 249.141 29.4283 252.932 26.3592C253.835 25.6371 254.557 24.3733 255.46 23.1095C256.543 24.3733 257.265 25.8176 258.349 26.7203C261.959 29.6089 265.751 32.4975 269.361 35.2055C269.722 35.386 270.625 35.2055 271.167 34.8444C274.777 32.8585 278.208 30.5115 281.818 28.5256C286.693 25.8176 291.567 23.2901 296.261 20.582C298.969 18.9572 301.497 17.1518 302.941 14.4438H303.663C306.191 22.929 312.51 28.7062 317.745 35.386C322.981 41.8854 328.216 48.5652 330.924 56.5088C332.188 59.939 332.91 63.7303 333.632 66.7994C337.062 64.8135 340.854 62.4665 344.826 60.6612C351.866 57.592 359.63 56.5088 367.393 55.7867C372.809 55.2451 378.225 54.7035 383.641 53.9813C386.168 53.6202 388.515 52.3565 391.043 51.6343C391.404 51.6343 391.946 51.2733 392.307 51.0927C392.307 51.4538 392.668 51.6343 392.487 51.8149C391.765 57.7726 393.751 63.3692 395.376 68.9658C397.362 75.6457 398.987 82.3256 400.972 89.186C400.972 89.7276 401.875 90.2692 402.417 90.4497C408.013 91.3524 413.61 93.1578 419.568 91.7135C419.748 91.7135 420.47 92.4356 420.47 92.7967C419.207 98.5739 420.47 104.17 421.734 109.767C421.734 110.309 422.456 111.031 422.998 111.211C430.761 113.378 438.705 115.725 446.648 117.891C450.981 118.974 455.133 120.238 459.647 119.697C460.549 119.697 461.091 119.877 460.55 120.78C456.939 127.099 457.119 134.14 456.397 141C455.494 149.846 454.772 158.873 451.162 167.178C449.356 171.33 447.009 175.121 444.843 178.913C445.926 178.913 447.551 179.274 449.176 179.635C455.856 180.899 461.813 183.787 467.229 187.759C472.826 191.911 478.242 196.244 483.658 200.577C487.63 203.827 491.602 207.076 496.837 208.521C497.018 208.521 497.198 208.701 497.379 208.882V209.243C493.227 212.131 490.88 216.464 488.352 220.797C484.38 227.838 480.409 234.698 476.617 241.739C476.437 242.1 476.256 242.823 476.617 243.184C479.867 248.058 482.756 253.113 487.811 256.363C488.172 256.363 488.352 256.904 488.533 257.266C487.088 258.349 485.644 259.251 484.741 260.515C481.853 263.945 479.325 267.556 476.617 270.986C476.256 271.347 476.617 272.431 476.798 272.972C478.784 276.222 480.77 279.472 482.756 282.721C485.825 288.137 488.713 293.734 491.963 298.97C493.227 301.136 495.574 302.761 497.379 304.566V305.288C489.074 307.635 483.478 313.774 476.978 319.009C470.118 324.425 463.438 329.841 455.133 332.73C451.703 333.994 448.092 334.535 444.482 335.438C450.801 342.659 453.509 351.506 454.772 360.713C455.856 368.296 456.217 375.878 457.48 383.28C458.022 386.53 459.466 389.779 460.55 392.849C460.55 393.029 460.55 393.39 460.73 393.751C460.369 393.751 460.188 394.112 460.008 394.112C454.592 393.39 449.537 395.015 444.301 396.459C437.08 398.626 429.858 400.431 422.817 402.417C422.456 402.417 421.734 403.139 421.734 403.5C420.651 409.097 419.026 414.694 420.47 420.651C420.831 421.915 420.47 422.095 419.207 421.734C413.429 420.471 407.833 421.915 402.056 423.179C401.695 423.179 401.153 423.72 401.153 424.262C398.987 432.206 396.64 440.149 394.473 448.273C393.209 452.426 392.307 456.759 392.848 461.091C392.848 461.452 392.848 461.633 392.848 461.994C392.487 461.994 392.307 461.994 392.126 461.994C387.071 458.925 381.474 458.744 375.878 458.022C367.393 457.12 358.727 456.578 350.422 454.231C344.464 452.606 339.048 449.898 334.174 445.565C333.993 447.371 333.813 448.815 333.452 450.259C332.007 458.744 327.494 465.966 322.439 472.826C320.092 475.895 317.565 478.965 315.037 482.034C310.704 487.269 306.01 492.324 304.205 499.004H303.483C301.677 495.574 298.428 493.588 295.178 491.602C287.234 487.089 279.291 482.575 271.347 478.062C270.986 477.881 270.264 477.881 269.903 478.062C265.028 481.311 259.793 484.2 256.724 489.436C256.724 489.616 256.182 489.797 256.002 489.977C255.821 489.977 255.64 489.977 255.64 489.797C252.391 484.561 247.336 481.673 242.461 478.242C242.1 477.881 241.017 477.881 240.656 478.242C233.254 482.395 225.852 486.547 218.269 490.88C214.478 493.046 210.867 495.393 208.159 499.004H207.798C207.257 497.56 206.896 496.115 206.173 494.852C203.826 491.241 201.48 487.811 198.952 484.381C194.619 478.603 189.925 473.007 185.773 467.049C181.259 460.73 178.551 453.689 178.19 445.926C178.01 445.926 177.829 445.926 177.649 445.926C170.427 452.245 161.761 454.773 152.554 456.217C144.972 457.3 137.389 457.842 129.806 458.925C126.557 459.467 123.668 460.73 120.419 461.814C119.516 462.175 118.794 462.355 118.974 461.091C119.696 456.578 118.433 452.426 117.349 448.273C115.183 440.33 113.017 432.386 110.67 424.442C110.67 423.901 109.947 423.359 109.406 423.179C103.809 422.095 98.2126 420.471 92.2549 421.915C91.1716 422.095 90.8106 421.915 91.1717 420.832C92.6159 414.874 90.8106 409.277 89.9079 403.5C89.9079 403.139 89.1857 402.598 88.8247 402.598C81.0616 400.431 73.118 398.265 65.3549 396.098C61.022 394.834 56.5086 393.751 51.9952 394.293C51.8147 394.293 51.4536 394.293 51.0925 394.293C51.0925 393.932 51.0925 393.751 51.0925 393.571C54.3422 388.155 54.3422 382.197 55.0643 376.239C55.7865 369.559 56.6892 362.699 57.7724 356.019C59.0361 348.437 62.1053 341.576 67.1603 335.799C63.5495 334.896 59.7583 334.174 56.3281 332.91C48.565 330.202 41.8852 325.147 35.5664 320.092C32.6778 317.745 29.6087 315.218 26.7201 312.871C22.9288 309.802 18.957 307.094 14.2631 305.649V304.927C17.6933 302.941 19.6792 299.692 21.6651 296.261C26.1785 288.318 30.6919 280.374 35.0248 272.611C35.0248 272.25 35.2053 271.708 35.0248 271.347C31.7751 266.473 28.8865 261.237 23.651 258.168C23.4704 258.168 23.2899 257.627 22.9288 257.266C24.3731 256.182 25.8174 255.28 26.7201 254.196C29.4281 250.947 31.7751 247.517 34.4832 244.267C35.3858 243.184 35.2053 242.462 34.4832 241.198C32.3167 237.587 30.1503 233.976 27.9838 230.185C24.9147 224.949 22.2067 219.714 19.1375 214.478C17.8738 212.492 15.8879 211.229 14.0825 209.604V208.521V207.618ZM157.97 369.74C158.331 372.628 158.512 375.517 158.873 378.406C163.386 405.847 189.022 423.72 215.381 420.11C233.254 417.763 245.892 407.833 254.557 392.307C254.918 391.765 255.46 391.224 255.821 390.863C256.182 391.404 256.724 391.765 257.085 392.487C266.292 408.736 279.652 418.846 298.608 420.471C314.857 421.915 328.938 416.499 339.951 404.583C353.491 389.96 356.56 372.628 351.144 353.672C350.964 352.95 351.144 352.228 351.144 351.686C351.866 351.686 352.408 351.686 352.95 351.686C361.074 354.033 369.198 354.755 377.503 353.492C406.75 348.978 426.428 319.19 418.484 290.484C414.513 275.68 405.125 264.848 391.765 257.627C391.223 257.266 390.862 256.724 390.501 256.363C390.862 256.002 391.223 255.46 391.765 255.28C397.001 252.572 401.514 248.961 405.666 244.809C425.525 224.769 424.984 191.37 404.222 172.413C389.238 158.693 371.906 155.623 352.769 161.22C352.228 161.22 351.505 161.22 350.964 161.22C350.964 160.678 350.964 159.956 350.964 159.415C353.491 151.291 354.213 143.166 352.95 134.862C348.436 105.795 319.55 86.2974 291.026 93.3383C275.5 97.1296 264.487 106.517 256.904 120.419C256.543 120.96 256.002 121.321 255.64 121.863C255.279 121.502 254.738 121.141 254.557 120.599C251.849 115.364 248.419 110.85 244.086 106.698C223.324 85.9363 188.3 87.5611 169.705 110.309C157.79 124.932 155.262 141.542 160.317 159.415C160.498 160.137 160.317 160.859 160.317 161.401C159.595 161.401 158.873 161.401 158.331 161.22C149.304 158.512 140.278 157.97 131.251 159.956C103.809 165.733 86.8388 192.633 92.0743 219.172C95.324 235.601 105.073 247.517 119.516 255.46C120.058 255.821 120.419 256.363 120.96 256.724C120.419 257.085 120.058 257.627 119.516 257.988C114.28 260.696 109.586 264.306 105.434 268.459C85.7556 288.498 86.2972 321.717 107.059 340.673C121.863 354.214 139.194 357.283 158.151 351.867C158.873 351.686 159.595 351.867 160.137 351.867C160.137 352.589 160.137 353.311 159.956 353.853C158.331 359.269 157.429 364.504 157.248 370.101L157.97 369.74ZM418.665 419.387C419.026 415.777 419.026 412.346 419.568 408.916C421.554 396.82 424.803 384.905 425.345 372.448C426.067 359.81 424.442 347.534 418.665 335.98C417.582 333.813 416.137 331.647 414.874 329.119C411.082 335.618 406.389 340.854 400.792 345.006C395.015 349.339 388.696 352.228 381.655 353.853C388.515 367.754 393.751 382.016 397.362 397.543C381.836 393.751 367.573 388.516 353.852 381.655C350.242 396.098 341.937 407.111 329.299 414.874C330.744 415.777 331.827 416.499 333.091 417.221C343.562 423.179 354.936 425.526 366.851 425.526C377.142 425.526 387.432 423.72 397.542 421.734C404.583 420.29 411.624 418.304 418.846 419.207L418.665 419.387ZM130.168 158.331C130.168 158.331 129.806 157.429 129.626 157.068C126.737 150.207 123.488 143.347 120.96 136.306C118.613 129.987 116.808 123.307 115.002 116.808C114.461 114.822 114.822 114.642 116.627 115.183C116.627 115.183 116.988 115.183 117.169 115.183C129.987 118.613 142.264 122.946 154.179 128.543C155.443 129.085 156.706 129.626 157.97 130.348C161.581 115.905 169.705 105.073 182.523 97.3101C181.62 96.7685 180.898 96.0463 180.176 95.6853C175.482 93.5188 171.149 90.9913 166.275 89.547C152.915 85.3947 139.375 86.1168 125.835 88.1027C114.822 89.7276 104.17 93.5188 92.7965 92.9772C93.5186 99.1155 92.0743 105.073 90.9911 111.031C88.8247 121.321 86.8388 131.793 86.4777 142.264C86.1166 153.276 87.5609 164.109 92.2549 174.219C93.6992 177.107 95.324 179.996 96.9488 183.065C104.892 170.066 115.725 161.762 130.168 158.151V158.331ZM158.151 382.016C158.151 382.016 157.068 382.377 156.706 382.558C144.069 388.877 130.709 393.571 116.988 397.181C114.822 397.723 114.28 397.542 115.002 395.376C117.349 387.974 119.516 380.572 122.043 373.17C124.39 366.671 127.279 360.533 129.987 354.214C115.725 350.603 104.892 342.479 97.1294 329.661C96.5878 330.383 96.2267 330.744 96.0461 331.286C90.63 339.771 87.922 349.159 86.8388 358.908C85.7555 370.281 87.1998 381.475 89.1857 392.487C90.8106 401.334 93.6992 410 92.7965 418.846C97.1293 419.207 101.282 419.387 105.434 420.11C116.808 422.095 128.001 424.984 139.555 425.526C151.471 426.067 163.025 424.804 174.038 419.929C176.927 418.665 179.815 416.86 182.884 415.235C169.886 407.291 161.761 396.459 158.151 382.016ZM275.68 98.2128C288.498 90.4497 302.038 88.6443 316.301 92.0745C316.301 91.7135 316.301 91.5329 316.301 91.3524C316.301 90.9913 316.301 90.6302 316.12 90.0886C313.773 79.2564 308.357 70.2296 301.316 61.9249C293.553 53.0786 283.985 46.2182 274.236 39.7189C267.917 35.386 261.057 31.7753 256.002 25.6371C251.127 31.5948 244.447 35.2055 238.309 39.5384C232.351 43.8713 226.394 48.0236 220.616 52.537C211.228 60.3001 203.646 69.3269 198.952 80.7007C197.508 84.3115 196.424 88.1027 195.161 91.894C195.161 91.894 195.522 92.0745 195.702 92.2551C202.563 90.4497 209.604 90.0886 216.645 91.1719C223.686 92.2551 230.185 94.6021 236.323 98.3933C241.378 83.7699 247.697 69.8685 256.002 56.3283C264.306 69.8685 270.625 83.5893 275.68 98.3933V98.2128ZM419.207 93.1578C412.888 93.8799 407.111 92.4356 401.153 91.3524C390.682 89.186 380.391 87.2001 369.74 86.839C358.727 86.4779 347.895 87.9222 337.785 92.6161C334.896 93.8799 332.188 95.6853 329.119 97.3101C342.117 105.254 350.422 116.086 354.033 130.529C367.934 123.668 382.197 118.433 397.542 114.822C393.932 130.348 388.515 144.43 381.836 158.331C396.278 161.942 407.291 170.247 414.874 182.884C415.235 182.343 415.596 181.801 415.957 181.44C421.554 172.594 424.442 162.845 425.345 152.554C426.248 141.722 424.803 130.89 422.998 120.238C421.373 111.392 418.484 102.546 419.387 93.1578H419.207ZM97.8515 236.504C90.0884 223.686 88.2831 210.146 91.7133 195.883C91.3522 195.883 91.1716 195.883 90.9911 195.883C90.4495 195.883 90.0884 195.883 89.5468 196.064C77.4509 198.772 67.5214 205.09 58.8556 213.576C50.912 221.339 44.5932 230.366 38.455 239.573C34.4832 245.531 31.053 251.669 25.2758 256.363C29.6087 259.613 32.3167 263.945 35.2053 268.098C37.0107 270.806 38.816 273.333 40.6214 276.041C46.0375 284.166 51.8147 291.748 58.6751 298.608C67.1603 306.913 76.9093 313.051 88.4636 315.94C89.5468 316.301 90.63 316.301 91.8938 316.662C90.0884 309.441 89.7273 302.58 90.63 295.72C91.7133 288.679 94.0602 282.18 97.8515 275.861C83.228 270.806 69.3267 264.487 55.7865 256.182C69.3267 247.878 83.0475 241.559 97.8515 236.504ZM486.547 256.363C484.741 254.377 482.936 252.752 481.311 250.766C479.686 248.78 478.423 246.794 476.978 244.628C474.992 241.559 473.007 238.67 470.84 235.601C465.605 227.658 459.827 220.256 452.967 213.576C445.204 206.174 436.538 200.397 426.248 197.147C424.262 196.605 422.276 196.064 419.929 195.522C423.54 210.145 421.554 223.686 413.971 236.504C414.693 236.684 415.235 237.045 415.776 237.226C429.136 241.92 441.774 247.878 453.87 254.919C455.675 256.002 455.675 256.363 453.87 257.266C442.676 263.765 431.303 269.362 419.207 273.875C417.401 274.597 415.776 275.139 413.791 275.861C421.373 288.679 423.359 302.039 419.748 316.662C421.915 316.12 423.901 315.759 425.886 315.218C439.066 311.246 449.356 302.941 458.383 292.831C465.063 285.249 470.479 276.764 476.076 268.459C478.964 263.945 481.853 259.432 486.186 256.182L486.547 256.363ZM236.323 414.332C223.505 421.915 209.965 423.901 195.702 420.471C195.702 420.832 195.702 421.012 195.702 421.193C195.702 421.734 195.702 422.095 195.883 422.637C197.147 428.595 199.494 434.191 202.563 439.427C209.423 450.981 219.172 459.647 229.824 467.41C238.49 473.909 248.6 478.603 255.64 486.547C258.89 483.839 262.14 481.131 265.57 478.603C267.195 477.34 269 476.256 270.806 474.993C280.555 468.493 290.304 461.814 298.608 453.328C306.732 444.843 312.871 435.455 315.759 423.901C316.12 422.818 316.301 421.734 316.481 420.29C309.26 421.915 302.399 422.457 295.359 421.554C288.318 420.471 281.818 418.124 275.68 414.332C275.5 415.055 275.319 415.596 275.138 415.957C270.444 429.317 264.487 441.955 257.446 454.231C256.363 456.217 256.002 456.217 254.918 454.231C248.238 443.038 242.642 431.303 238.128 419.026C237.587 417.582 237.045 415.957 236.504 414.332H236.323ZM25.9979 301.858C27.2617 302.941 28.5254 304.025 29.7892 304.927C35.5664 309.621 41.163 314.496 47.3013 318.829C57.0502 325.869 67.8824 330.022 80.3394 327.855C80.7005 327.855 81.2421 328.216 81.6032 328.216C81.4227 328.578 81.2421 329.119 80.8811 329.3C78.8952 331.105 76.9093 332.549 75.1039 334.535C68.9656 340.854 65.716 348.798 64.2717 357.463C62.8274 366.671 62.1053 376.059 61.022 385.266C61.022 385.627 61.7442 386.53 62.1053 386.71C66.7992 388.335 71.6737 389.779 76.5482 391.224C80.3394 392.307 83.9502 393.21 87.922 394.293C87.922 393.39 87.922 393.029 87.7414 392.487C85.7555 381.475 84.3113 370.643 85.3945 359.449C86.2972 348.437 89.3663 338.146 95.6851 328.939C96.2267 328.216 96.2267 327.494 95.6851 326.592C94.6018 324.245 93.6992 321.717 92.6159 319.19C92.2549 318.467 91.5327 317.745 90.8106 317.745C80.1589 315.759 70.9515 310.704 62.4663 303.844C53.8006 296.623 46.7596 287.957 40.6214 278.749C40.2603 278.208 39.8993 277.666 39.1771 276.764C34.6637 285.249 30.1503 293.373 25.8174 301.678L25.9979 301.858ZM424.081 117.711C424.081 118.613 424.081 119.155 424.081 119.516C424.984 126.196 426.067 132.695 426.609 139.375C427.692 155.082 425.164 170.066 416.137 183.426C415.776 183.787 415.957 184.87 416.137 185.412C417.04 187.759 418.123 190.106 419.026 192.633C419.387 193.717 420.109 194.258 421.193 194.439C426.789 195.341 432.205 197.508 437.26 200.216C447.37 205.632 455.494 213.215 462.716 221.88C466.146 226.033 469.215 230.546 472.826 235.24C477.339 226.935 481.672 218.811 486.186 210.326C479.325 204.91 472.826 199.133 465.785 194.078C455.675 186.676 444.662 182.162 431.844 184.329C431.483 184.329 430.942 183.968 430.4 183.968C430.761 183.607 430.941 183.065 431.303 182.704C433.288 180.899 435.635 179.274 437.441 177.288C443.399 170.789 446.468 162.845 447.912 154.36C449.356 145.333 450.078 136.125 451.162 126.918C451.162 126.557 450.62 125.835 450.078 125.654C447.551 124.752 445.204 124.03 442.676 123.307C436.719 121.502 430.58 119.697 424.262 117.711H424.081ZM210.145 25.9981C204.729 32.678 199.133 39.1773 194.078 46.0377C186.495 56.1477 181.801 67.341 183.967 80.5202C183.967 80.8813 183.787 81.4229 183.606 81.784C183.245 81.6034 182.704 81.4229 182.343 81.0618C180.537 79.0759 178.912 76.9095 177.107 75.1041C170.247 68.6048 161.761 65.5357 152.554 64.0914C144.069 62.8276 135.403 62.1055 126.737 61.2028C125.654 61.2028 125.474 61.5638 125.113 62.4665C123.668 66.9799 122.224 71.4934 120.96 76.0068C119.696 79.9786 118.794 83.9504 117.53 88.2833C118.433 88.2833 118.794 88.2833 119.335 88.1027C127.098 87.2 134.681 85.7558 142.444 85.5752C157.067 84.8531 170.969 87.7417 183.245 96.2269C183.606 96.588 184.69 96.2269 185.231 96.2269C187.759 95.3242 190.106 94.241 192.633 93.1578C193.355 92.7967 194.078 92.0745 194.078 91.5329C196.244 80.7007 201.118 71.3128 208.159 63.0081C215.02 54.7035 223.324 48.0236 232.171 41.8854C233.073 41.3437 233.796 40.8021 235.24 39.8995C226.574 35.2055 218.45 30.8726 210.145 26.3592V25.9981ZM394.293 424.081C394.293 424.081 393.029 424.081 392.668 424.081C385.988 424.984 379.489 426.248 372.809 426.609C357.102 427.692 342.117 425.165 328.758 416.138C328.397 415.777 327.494 415.777 326.952 416.138C324.425 417.04 321.897 418.304 319.37 419.207C318.287 419.568 317.926 420.11 317.745 421.193C316.481 427.873 314.134 434.011 310.704 439.788C304.205 450.981 294.997 459.647 284.707 467.23C282.36 469.035 279.832 470.66 276.763 472.826C285.248 477.34 293.373 481.853 302.038 486.367C308.177 478.423 314.676 470.66 320.273 462.536C326.591 453.509 329.841 443.218 327.855 431.844C327.855 431.483 328.036 430.942 328.216 430.581C328.577 430.761 329.119 430.942 329.48 431.303C331.285 433.289 332.73 435.275 334.716 437.08C342.479 444.302 352.047 447.19 362.157 448.634C369.74 449.718 377.503 450.259 385.266 451.162C386.349 451.162 386.53 450.801 386.891 449.898C388.154 445.565 389.599 441.413 390.862 437.08C392.126 432.928 393.209 428.775 394.473 424.262L394.293 424.081ZM276.763 39.5384C277.846 40.2605 278.569 40.8021 279.291 41.1632C287.234 46.5793 294.636 52.3565 301.136 59.3974C309.44 68.4242 315.579 78.7148 317.926 91.1719C317.926 91.7135 318.648 92.4356 319.37 92.7967C321.717 93.8799 324.244 94.7826 326.591 95.8658C327.494 96.4074 328.216 96.2269 329.119 95.8658C333.452 93.6994 337.604 90.9913 342.118 89.3665C355.838 84.3115 370.101 84.6725 384.363 86.6584C387.613 87.2 390.862 87.7417 394.654 88.2833C391.946 79.0759 389.238 70.0491 386.529 61.2028C383.821 61.5639 381.474 61.7444 378.947 61.9249C371.364 62.8276 363.601 63.3692 356.019 64.8135C345.367 66.9799 335.979 71.8544 329.66 81.0618C329.48 81.4229 328.938 81.6034 328.577 81.784C328.577 81.2423 328.036 80.8813 328.036 80.3397C328.036 76.7289 328.577 73.2987 328.216 69.8685C327.675 62.8276 324.967 56.1477 320.814 50.5511C314.856 42.2464 308.177 34.3028 301.858 26.3592C301.858 26.3592 301.677 26.3592 301.497 26.3592C293.373 30.6921 285.429 35.025 276.763 39.7189V39.5384ZM234.879 472.826C229.463 468.493 224.047 464.883 219.172 460.55C206.715 449.898 197.327 437.261 194.078 420.832C194.078 420.29 193.355 419.568 192.814 419.387C190.467 418.304 187.939 417.402 185.412 416.318C184.509 415.777 183.787 415.957 182.884 416.499C178.19 419.749 172.955 422.095 167.539 423.901C153.818 428.053 140.097 427.692 126.196 425.526C123.488 425.165 120.78 424.623 117.891 424.081C117.891 424.984 118.072 425.706 118.252 426.248C120.599 434.191 122.946 442.316 125.474 450.259C125.474 450.62 126.557 451.162 127.098 450.981C130.348 450.801 133.598 450.44 136.847 450.079C143.708 449.176 150.568 448.634 157.248 447.19C167.358 445.024 176.204 440.149 182.343 431.483C182.704 431.122 183.245 430.942 183.787 430.761C183.787 431.303 184.148 431.844 183.967 432.386C182.704 440.691 184.148 448.634 187.939 456.217C193.536 467.591 202.563 476.437 210.145 486.367C218.45 481.853 226.574 477.52 234.879 473.007V472.826ZM472.645 276.944C471.923 278.027 471.562 278.388 471.201 279.11C466.146 286.512 460.73 293.373 454.411 299.692C444.843 308.899 434.191 315.579 421.012 318.106C420.29 318.106 419.748 319.009 419.387 319.551C418.304 321.898 417.401 324.425 416.318 326.772C415.776 327.675 415.957 328.397 416.499 329.3C420.29 334.716 422.817 340.673 424.442 346.992C427.872 359.991 427.511 373.17 425.345 386.349C424.984 388.877 424.442 391.585 423.901 394.473C424.803 394.473 425.525 394.293 426.067 394.112C434.011 391.765 441.954 389.418 449.898 387.071C450.259 387.071 450.801 385.988 450.801 385.627C450.62 382.377 450.259 378.947 449.898 375.698C448.995 368.837 448.454 361.977 447.009 355.477C444.843 345.187 439.968 336.521 431.122 330.202C430.761 330.022 430.58 329.3 430.4 328.939C430.942 328.939 431.303 328.578 431.844 328.578C435.274 328.578 438.705 329.119 442.135 328.758C450.62 328.036 458.203 324.245 464.882 319.37C471.201 314.676 477.339 309.441 483.478 304.566C484.38 303.844 485.102 303.122 486.005 302.58C481.492 294.276 477.159 286.151 472.645 277.666V276.944ZM87.922 118.072C87.922 118.072 86.4777 118.252 85.7555 118.433C77.8119 120.78 69.8683 123.127 61.9247 125.474C60.8415 125.835 60.8415 126.376 61.022 127.279C61.2026 129.265 61.3831 131.432 61.7442 133.417C62.8274 141.542 63.5495 149.846 65.1744 157.79C67.1603 167.719 72.0348 176.024 80.52 182.162C81.0616 182.523 81.4227 183.246 81.7837 183.787C81.0616 183.787 80.52 184.148 79.7978 184.148C72.0348 182.884 64.6328 184.148 57.5918 187.398C53.4395 189.384 49.2872 191.731 45.4959 194.439C38.816 199.494 32.4973 204.91 25.9979 210.145C30.6919 218.45 34.3026 226.935 39.5382 234.698C43.51 229.643 47.1207 224.408 51.0925 219.714C61.7442 207.076 74.5623 197.327 91.1717 194.078C91.7133 194.078 92.4354 193.175 92.6159 192.633C93.6992 190.286 94.6018 187.759 95.6851 185.412C96.2267 184.329 96.0461 183.787 95.5045 182.884C93.6992 179.996 91.8938 176.927 90.4495 173.858C84.3113 159.956 83.9502 145.513 85.9361 130.89C86.4777 126.738 87.1998 122.585 87.922 118.072ZM303.663 495.393C306.552 488.352 311.968 483.297 316.301 477.52C319.731 473.007 323.161 468.674 326.23 463.98C330.202 457.842 332.549 451.162 332.73 443.76C332.73 443.399 333.091 442.857 333.091 442.496C333.632 442.677 334.174 442.857 334.535 443.038C335.799 444.121 337.062 445.204 338.326 446.107C345.548 451.342 353.852 453.148 362.518 454.412C369.198 455.314 376.058 455.856 382.738 456.578C385.627 456.939 388.515 457.842 391.585 458.564C391.585 453.328 393.029 448.454 394.473 443.579C396.098 438.344 397.542 432.928 399.167 427.692C399.528 426.067 399.889 424.442 400.25 422.637C398.987 422.818 397.903 422.998 397.001 423.359C396.459 423.54 395.737 424.262 395.556 424.804C392.848 433.65 390.321 442.496 387.793 451.342C387.432 452.426 387.071 452.787 385.988 452.606C383.641 452.245 381.474 452.065 379.128 451.884C371.906 450.981 364.685 450.44 357.644 449.357C348.436 447.732 339.951 444.301 333.091 437.622C332.007 436.538 331.105 435.455 330.022 434.553C329.841 438.163 329.66 441.774 329.119 445.204C327.675 454.05 323.342 461.452 318.106 468.493C313.232 474.993 307.996 481.131 302.941 487.269C302.219 488.172 301.677 487.811 300.955 487.45C292.47 482.936 284.165 478.423 275.5 473.729C274.597 474.271 273.514 475.173 271.889 476.076C274.236 477.52 276.222 478.784 278.388 480.048C286.693 485.103 296.261 488.352 303.844 495.393H303.663ZM240.114 36.2887C237.587 34.6639 235.42 33.4001 233.254 32.1364C224.949 27.0814 215.561 23.8317 208.159 16.9713C206.354 21.6653 203.285 25.276 200.396 29.0673C196.063 34.4834 191.731 39.7189 187.759 45.4961C182.704 52.3565 179.454 60.1196 179.274 68.9658C179.274 69.3269 179.093 70.0491 178.732 70.0491C178.371 70.0491 177.829 70.0491 177.468 69.688C176.204 68.6048 175.121 67.5216 173.677 66.6189C165.914 61.0222 156.706 59.2169 147.319 57.9531C138.292 56.6894 129.084 57.0504 120.78 53.9813C119.877 58.4947 118.974 62.8276 117.891 67.1605C116.266 72.9377 114.461 78.7148 112.836 84.492C112.294 86.1168 112.114 87.9222 111.753 89.7276C113.017 89.547 114.1 89.3665 115.002 89.0054C115.544 88.8249 116.266 88.1027 116.447 87.5611C118.974 78.7148 121.682 70.0491 124.029 61.2028C124.39 59.939 124.932 59.7585 126.015 59.939C128.543 60.3001 131.07 60.4806 133.598 60.6612C140.639 61.5638 147.68 62.1055 154.721 63.3692C163.747 64.994 172.052 68.4242 178.732 74.9236C179.815 76.0068 180.898 76.9095 181.801 77.8121C182.162 74.382 182.162 70.5907 182.704 66.9799C184.148 58.4947 188.3 51.2733 193.355 44.5934C198.23 38.0941 203.646 31.7753 208.701 25.4565C209.423 24.5538 209.965 24.7344 210.867 25.276C218.992 29.7894 226.935 34.1223 235.059 38.6357C235.42 38.8162 236.143 38.9968 236.504 38.8162C237.587 38.2746 238.49 37.5525 239.753 36.6498L240.114 36.2887ZM434.011 182.343C437.26 182.343 440.149 182.343 443.218 182.704C451.703 183.787 459.105 187.398 465.785 192.272C473.007 197.688 480.047 203.466 487.088 209.243C487.449 209.604 487.63 210.507 487.269 211.048C482.936 219.172 478.423 227.296 473.909 235.421C473.729 235.782 473.548 236.504 473.729 236.865C474.27 237.948 475.173 238.851 475.895 240.115C476.437 239.392 476.798 238.851 477.159 238.49C480.228 232.893 483.478 227.477 486.547 221.88C489.074 217.186 491.602 212.492 495.574 208.521C490.338 206.535 486.547 203.105 482.394 199.855C476.256 195.161 470.298 190.286 463.799 185.954C457.841 181.982 451.162 179.635 443.76 179.635C443.399 179.635 442.857 179.274 442.496 179.093C442.676 178.552 442.857 178.191 443.037 177.649C445.023 174.76 447.19 172.233 448.995 169.164C452.425 163.206 453.689 156.346 454.411 149.666C455.314 142.986 455.856 136.125 456.578 129.446C456.939 126.557 457.841 123.668 458.564 120.599C453.147 120.599 448.092 118.974 442.857 117.53C436.899 115.725 430.761 114.1 424.623 112.475C424.081 112.475 423.359 112.475 422.637 112.295C422.817 113.558 422.998 114.642 423.359 115.544C423.359 116.086 424.081 116.628 424.442 116.628C433.288 119.155 441.954 121.863 450.801 124.21C452.245 124.571 452.606 125.113 452.425 126.557C451.703 133.598 451.162 140.639 450.259 147.499C448.634 160.678 444.843 172.955 434.011 182.162V182.343ZM182.343 434.372C182.343 434.372 181.62 434.733 181.62 434.914C175.121 442.496 166.816 446.648 157.248 448.815C146.957 451.342 136.125 451.342 125.654 452.787C124.571 452.787 124.39 452.426 124.029 451.523C121.502 442.677 118.974 433.83 116.266 424.984C116.266 424.442 115.725 423.901 115.364 423.72C114.1 423.359 113.017 423.179 111.392 422.998C111.933 425.526 112.294 427.512 112.836 429.678C114.822 436.538 116.988 443.399 118.794 450.44C119.516 453.148 119.696 456.036 120.238 458.925C122.404 458.383 124.39 457.481 126.557 457.3C133.959 456.397 141.541 455.675 148.943 454.773C159.234 453.328 169.163 450.981 177.107 443.218C177.468 442.857 178.01 442.677 178.371 442.857C178.732 442.857 178.732 443.579 178.912 444.121C179.093 446.107 179.093 447.912 179.454 449.898C181.079 458.564 185.953 465.785 191.008 472.646C196.605 480.228 203.826 486.728 207.798 495.754C211.409 491.783 216.103 489.436 220.797 486.908C226.032 484.02 231.268 481.131 236.504 478.242C237.406 477.701 238.309 476.979 239.392 476.256C238.309 475.534 237.406 474.812 236.504 474.271C236.143 474.09 235.24 474.09 234.879 474.271C227.477 478.242 219.894 482.395 212.492 486.547C209.243 488.352 209.243 488.352 206.715 485.283C202.021 479.506 197.147 473.729 192.633 467.952C187.037 460.73 182.884 452.787 181.801 443.399C181.44 440.51 181.801 437.622 181.801 434.553L182.343 434.372ZM77.4509 182.162C77.4509 182.162 77.4509 182.162 77.2703 181.982C70.0489 175.844 66.0771 167.9 63.7301 159.054C60.8415 148.221 60.8415 137.028 59.5777 126.015C59.5777 125.654 60.2999 124.752 60.661 124.571C69.5073 121.863 78.3536 119.336 87.1998 116.808C87.7415 116.808 88.2831 116.266 88.4636 115.725C88.8247 114.642 89.0052 113.378 89.1857 112.114C87.7414 112.295 86.8388 112.656 85.7555 112.836C74.7428 115.003 64.6328 120.419 53.62 120.78C54.3422 124.932 55.2449 128.904 55.7865 133.056C56.6892 140.097 57.2308 147.319 58.314 154.36C59.7583 163.206 62.6469 171.33 69.1462 177.829C69.3267 178.191 69.6878 178.732 69.5073 178.913C69.3267 179.274 68.7851 179.454 68.424 179.454C65.5354 179.996 62.4663 180.176 59.3972 180.899C51.4536 183.065 44.7737 187.759 38.2744 192.814C31.2335 198.23 25.0953 204.91 16.61 208.521C25.0953 217.909 28.3449 230.185 35.9274 240.115C36.6496 239.212 37.3717 238.309 37.7328 237.407C37.9133 236.865 37.9133 235.962 37.7328 235.421C33.3999 227.296 28.8865 219.172 24.3731 211.048C24.1926 210.687 24.3731 209.604 24.7342 209.243C30.6919 204.368 36.6496 199.494 42.6073 194.619C49.2872 189.384 56.3281 185.231 64.6328 183.426C68.7851 182.523 72.9375 182.523 77.2703 181.982L77.4509 182.162ZM422.637 400.431C422.637 400.431 423.359 400.431 423.72 400.431C428.775 398.987 433.83 397.723 438.885 396.279C445.204 394.473 451.342 391.946 458.203 391.946C457.48 387.974 456.578 384.183 456.036 380.392C455.133 373.892 454.772 367.573 453.87 361.074C452.425 351.325 449.717 342.118 442.676 334.896C442.496 334.716 442.135 333.994 442.315 333.813C442.496 333.452 443.037 333.271 443.579 333.271C449.537 333.271 454.953 331.466 460.188 328.758C466.868 325.328 472.826 320.453 478.603 315.759C482.936 312.149 487.63 308.899 492.143 305.649C493.046 304.927 494.31 304.566 494.851 304.205C492.504 300.594 490.158 297.164 487.991 293.553C484.38 287.415 481.131 281.096 477.7 274.958C477.159 274.055 476.617 273.333 475.895 272.25C475.173 273.333 474.451 274.236 473.909 275.139C473.729 275.5 473.729 276.402 473.909 276.764C477.881 283.985 481.853 291.387 485.825 298.608C487.269 301.136 486.848 303.302 484.561 305.108C478.423 309.982 472.465 315.218 466.146 319.912C456.939 326.592 446.829 330.744 435.094 330.022C434.913 330.022 434.733 330.022 434.372 330.022C434.733 330.383 434.733 330.563 434.913 330.744C441.232 336.16 445.204 343.201 447.551 351.145C450.981 362.699 450.981 374.795 452.425 386.53C452.425 386.891 451.884 387.613 451.523 387.794C443.399 390.321 435.274 392.668 427.15 395.015C423.359 396.098 423.359 395.918 422.817 400.251L422.637 400.431ZM35.9274 272.25C34.3026 274.958 32.6778 277.486 31.053 280.194C26.359 288.137 23.2899 296.984 16.7906 303.844C23.8315 306.733 28.706 311.968 34.4832 316.301C38.9966 319.731 43.51 323.342 48.2039 326.411C54.3422 330.383 61.022 332.73 68.424 332.91C68.7851 332.91 69.3267 333.271 69.6878 333.271C69.5073 333.813 69.3267 334.355 68.9656 334.716C65.1744 338.507 62.4663 343.02 61.022 348.075C59.5777 352.769 58.4945 357.463 57.7724 362.157C55.967 371.906 56.8697 382.197 53.259 391.585C55.6059 391.946 58.1334 391.946 60.4804 392.487C67.8824 394.473 75.2844 396.82 82.6864 398.806C84.8529 399.348 87.0193 399.709 89.3663 400.251C89.1857 398.806 89.0052 397.904 88.6441 396.82C88.4636 396.279 87.922 395.557 87.3804 395.376C78.5341 392.849 69.8683 390.14 61.022 387.794C59.7583 387.432 59.3972 386.891 59.5777 385.808C59.9388 383.28 60.1194 380.753 60.2999 378.225C61.2026 370.643 61.9247 363.241 63.1885 355.658C64.9938 345.729 69.5073 336.882 77.2703 330.202V329.841C73.6596 329.48 70.2294 329.48 66.7992 328.939C59.0361 327.675 51.9952 324.245 45.857 319.551C38.6355 314.135 31.7751 308.357 24.9147 302.761C24.5536 302.4 24.3731 301.497 24.5536 300.955C28.5254 293.373 32.4973 285.971 36.6496 278.569C38.455 275.139 38.6355 275.319 36.2885 272.25C36.2885 272.25 36.2885 272.25 35.7469 272.07L35.9274 272.25ZM400.25 89.3665C399.348 85.7558 398.625 82.5061 397.723 79.0759C395.917 72.7571 393.931 66.6189 392.307 60.4806C391.765 58.1337 391.585 55.7867 391.404 53.4397C389.057 53.9813 386.891 54.884 384.544 55.2451C377.142 56.1477 369.559 56.8699 362.157 57.7726C352.047 59.2169 342.118 61.7444 334.535 69.1464C334.174 69.5075 333.632 69.5075 333.271 69.688C333.271 69.3269 332.91 68.7853 332.91 68.4242C332.73 66.6189 332.73 64.8135 332.369 63.0081C331.105 55.9672 327.675 49.829 323.703 44.0518C317.565 34.8444 308.718 27.4424 303.844 17.1518C294.636 25.4565 282.179 28.8867 272.25 36.4693C272.972 37.0109 273.694 37.3719 274.236 37.9135C275.319 38.9968 276.402 38.6357 277.485 37.9135C285.429 33.5807 293.373 29.2478 301.316 24.9149C301.677 24.7344 302.761 24.9149 302.941 25.0954C308.899 32.4974 314.856 39.5384 320.453 47.1209C325.328 53.8008 328.758 61.2028 329.66 69.5075C330.022 72.2155 329.66 74.9236 329.66 77.6316C330.022 77.6316 330.202 77.6316 330.202 77.6316C330.202 77.6316 330.563 77.2705 330.744 77.09C335.799 71.1323 342.298 67.341 349.7 64.8135C361.615 60.8417 374.072 61.0222 386.349 59.5779C386.71 59.5779 387.613 60.1196 387.613 60.6612C390.14 68.7853 392.487 76.9095 394.834 85.0336C395.917 88.8249 395.737 88.8249 400.25 89.3665Z" fill="url(#paint0_radial_44_2)"/>
<path fill-rule="evenodd" clip-rule="evenodd" d="M382.917 256.18C389.056 259.791 394.291 263.943 398.985 268.998C407.831 278.747 413.428 290.121 413.609 303.481C413.609 319.549 406.568 331.464 393.388 340.13C383.459 346.449 372.446 348.796 360.892 348.254C356.017 348.074 351.143 347.171 346.088 346.449C346.449 348.074 346.81 349.879 347.171 351.684C349.518 365.044 348.435 377.862 341.936 390.139C330.923 410.9 309.078 419.024 287.052 410.72C274.595 406.026 265.207 397.541 257.986 386.528C257.444 385.625 256.903 384.722 256.181 383.82C256.181 383.82 256.181 383.82 255.82 383.459C254.917 384.903 254.014 386.347 252.931 387.792C244.265 400.249 233.253 409.095 218.268 412.706C196.242 417.941 175.842 406.567 167.537 385.084C163.024 372.988 162.663 360.711 165.551 348.254C165.551 347.712 165.732 347.171 165.912 346.268C163.204 346.81 160.677 347.351 157.969 347.712C142.262 349.879 127.639 347.712 114.64 337.783C99.2943 326.048 94.0588 306.911 100.919 288.135C105.794 274.956 114.64 265.207 126.194 257.805C126.916 257.264 127.639 256.903 128.361 256.361C126.194 254.917 123.847 253.472 121.861 252.028C110.488 243.543 102.363 232.891 99.1138 218.99C93.8782 196.964 105.072 176.383 126.555 168.078C138.651 163.385 151.108 163.023 163.565 166.093C164.107 166.093 164.649 166.273 165.371 166.454C164.829 163.023 163.926 159.774 163.746 156.344C162.121 139.554 165.371 124.208 177.286 111.751C185.952 102.544 196.784 98.3913 209.422 98.9329C222.42 99.4745 233.433 105.071 242.821 113.556C247.334 117.709 251.306 122.583 254.556 127.819C254.736 128.18 255.097 128.721 255.458 129.263C256 128.541 256.361 127.999 256.722 127.458C264.846 114.64 275.679 105.071 290.663 100.738C311.425 94.6001 331.825 103.627 341.574 122.944C348.254 136.123 348.976 150.025 345.727 164.468C345.727 165.19 345.366 165.732 345.185 166.634C347.171 166.273 348.796 165.912 350.601 165.551C364.322 163.023 377.682 164.287 389.958 170.967C410.359 182.16 418.303 204.366 409.456 226.211C404.582 238.307 396.277 247.515 385.264 254.556C384.362 255.097 383.459 255.639 382.376 256.361L382.917 256.18ZM362.697 346.81C371.544 346.81 378.043 345.546 385.625 342.477C406.026 334.172 416.317 313.41 410.359 292.468C406.026 276.942 395.916 265.749 382.376 257.625C381.654 257.264 381.293 256.722 380.751 256.18C381.293 255.639 381.654 255.097 382.376 254.736C392.125 248.959 400.068 241.557 405.665 231.627C410.901 222.239 413.428 212.129 411.442 201.297C408.915 186.854 400.249 176.925 387.431 170.787C374.252 164.468 360.531 164.107 346.63 167.717C345.907 167.898 345.005 167.717 344.283 167.898C344.283 167.176 344.283 166.273 344.463 165.551C347.713 153.274 347.713 140.998 343.199 129.083C334.353 104.71 310.342 93.8779 286.511 103.627C273.512 108.862 264.124 118.07 257.264 129.985C256.903 130.527 256.361 130.888 256 131.43C255.639 130.888 255.097 130.527 254.736 129.985C249.681 121.139 243.001 113.737 234.336 108.14C224.948 102.183 214.838 99.1135 203.644 100.197C189.743 101.822 179.453 109.043 172.592 121.139C164.468 135.221 163.746 150.205 167.718 165.731C167.898 166.454 167.718 167.176 167.898 167.898C167.176 167.898 166.454 167.898 165.732 167.898C151.108 164.107 136.846 164.648 123.306 171.509C104.53 181.077 95.8641 200.756 102.002 220.976C106.516 236.141 116.626 246.973 129.986 254.917C130.527 255.278 131.069 255.639 131.43 256.18C130.888 256.722 130.527 257.264 129.986 257.625C120.598 263.041 112.835 270.262 107.238 279.65C101.28 289.58 98.7527 300.231 100.919 311.786C103.808 326.951 113.376 337.061 127.278 342.838C140.096 348.254 153.275 348.074 166.454 344.643C168.259 344.102 168.62 344.643 168.079 346.268C165.732 354.753 165.01 363.419 166.273 372.265C167.718 382.917 171.69 392.486 179.453 400.249C191.729 412.706 206.533 415.414 222.781 410.178C237.044 405.484 247.334 395.916 254.917 383.098C255.278 382.375 256 381.834 256.542 381.292C257.083 381.834 257.625 382.375 257.986 383.098C263.041 391.763 269.54 398.985 278.026 404.401C288.858 411.442 300.593 414.511 313.411 411.803C327.312 408.734 336.519 400.068 342.297 387.431C348.435 374.251 348.435 360.531 344.824 346.81C344.824 346.268 344.824 345.546 344.824 345.004C345.366 345.004 345.907 345.004 346.449 345.004C352.046 346.449 357.823 347.351 363.239 347.351L362.697 346.81Z" fill="url(#paint1_radial_44_2)"/>
<path fill-rule="evenodd" clip-rule="evenodd" d="M377.503 256C375.517 258.166 373.531 260.513 371.726 262.68C375.698 265.929 379.489 268.637 382.739 271.887C390.141 278.928 395.557 287.413 397.001 297.884C398.807 311.605 392.668 323.521 380.211 329.839C370.823 334.714 360.894 335.797 350.423 334.533C347.895 334.172 345.368 333.811 342.299 333.27C342.299 335.797 341.938 338.325 342.118 340.852C342.118 342.296 341.757 342.477 340.674 342.296C338.146 342.296 335.619 342.477 332.911 342.657C333.452 345.727 333.813 348.254 334.175 350.962C335.258 361.072 334.355 370.821 329.842 380.029C321.356 396.638 303.664 402.415 286.513 394.291C276.944 389.778 269.723 382.556 263.946 373.71C263.585 373.349 263.404 372.807 262.863 372.085C260.516 374.071 258.349 376.057 256.183 378.043C254.016 376.237 251.85 374.251 249.322 372.085C248.6 372.988 248.239 373.71 247.697 374.432C241.559 383.459 233.796 391.041 223.506 395.194C212.312 399.707 201.3 399.346 191.551 391.763C184.149 385.986 180.357 378.043 178.371 369.196C176.566 360.892 177.108 352.587 178.913 344.282C178.913 344.102 178.913 343.741 179.094 343.199C176.386 343.199 173.858 342.838 171.511 342.838C170.067 342.838 170.067 342.477 170.067 341.394C170.067 338.866 169.886 336.339 169.706 333.811C165.012 334.353 160.679 335.075 156.526 335.255C146.597 335.797 137.029 333.811 128.543 328.215C115.906 319.91 111.392 305.647 116.808 290.843C120.78 280.011 128.363 271.887 137.751 265.388C138.653 264.846 139.376 264.305 140.639 263.402C138.834 261.416 137.209 259.43 135.404 257.805C134.501 256.903 134.501 256.722 135.404 255.819C137.209 254.014 138.834 252.028 140.459 250.223C136.487 246.973 132.515 244.084 129.085 240.835C121.863 233.974 116.628 225.85 115.184 215.921C113.017 201.658 119.155 189.743 132.154 183.063C140.459 178.911 149.305 177.466 158.512 178.189C162.123 178.369 165.553 179.091 169.706 179.633C169.886 176.744 170.067 173.856 170.247 170.967C172.955 170.787 176.024 170.426 178.732 170.245C178.371 163.746 177.649 157.788 177.649 151.65C177.649 144.428 179.635 137.568 183.246 131.249C190.828 117.889 204.73 112.293 219.534 116.626C230.908 119.875 239.212 127.277 246.253 136.485C247.336 137.929 248.239 139.373 249.503 141.179C251.489 139.554 253.294 137.929 254.919 136.124C256.002 134.86 256.363 135.04 257.266 136.124C258.891 137.929 260.877 139.373 262.863 141.179C263.765 139.734 264.487 138.832 265.21 137.748C271.348 129.083 278.93 121.861 289.04 117.889C300.234 113.556 311.066 113.918 320.815 121.5C328.217 127.277 332.008 135.401 333.813 144.428C335.438 152.552 334.897 160.496 333.272 168.62C333.272 168.981 333.272 169.342 333.091 170.064C336.16 170.064 339.049 170.426 341.938 170.606C342.118 173.495 342.299 176.564 342.66 179.452C347.354 178.911 351.687 178.189 356.019 178.008C364.866 177.647 373.351 179.091 381.295 183.605C395.918 191.729 401.515 207.255 395.376 223.323C391.405 233.613 384.364 241.376 375.517 247.515C374.615 248.237 373.531 248.959 372.448 249.681C372.448 249.681 372.448 249.681 372.087 250.223C373.893 252.389 375.878 254.556 377.864 256.722L377.503 256ZM175.844 288.858C175.844 288.858 176.024 289.219 176.205 289.219C175.663 289.76 175.302 290.302 174.761 290.663C170.969 293.552 168.622 297.162 167.539 301.676C166.275 306.37 166.275 311.244 166.998 316.119C168.081 321.896 169.345 327.492 170.428 333.27C170.969 335.797 171.15 338.325 171.33 340.311C175.483 341.033 179.455 341.755 183.246 342.477C189.565 343.921 195.883 345.366 202.383 345.185C210.146 345.185 216.826 343.019 221.52 336.158C221.52 335.978 221.881 335.797 222.422 335.436C222.603 336.158 222.964 336.7 222.964 337.061C221.7 343.741 224.047 349.518 228.2 354.573C231.81 358.906 236.504 362.336 241.198 365.405C246.073 368.655 251.489 371.182 255.461 375.154C259.071 372.627 262.682 370.28 266.112 367.933C270.806 364.683 275.681 361.614 280.014 357.823C285.971 352.406 289.943 345.907 288.499 337.241C288.499 336.88 288.679 336.339 288.86 335.978C289.401 336.339 289.943 336.519 290.304 336.88C293.734 341.574 298.248 344.102 303.844 345.004C308.538 345.727 313.232 345.546 317.926 344.643C325.509 343.199 332.911 341.574 340.313 340.13C340.674 337.422 341.035 334.533 341.577 331.645C342.66 324.965 344.285 318.466 344.826 311.786C345.548 303.3 343.562 295.537 335.98 290.302C335.799 290.121 335.619 289.58 335.438 289.219C335.98 289.219 336.521 288.677 336.883 288.858C343.923 290.121 349.701 287.413 354.936 282.9C359.089 279.289 362.158 274.956 365.046 270.623C368.296 265.749 370.823 260.333 374.795 256.361C372.087 252.57 369.74 248.778 367.032 244.987C363.783 240.474 360.713 235.78 357.103 231.627C353.492 227.295 348.798 224.225 342.84 223.323C340.493 222.962 337.966 223.323 335.077 223.323C335.619 222.601 335.98 221.878 336.521 221.517C340.493 218.629 342.84 214.657 343.923 209.963C345.187 204.727 345.007 199.311 343.923 194.076C342.479 186.493 340.854 179.091 339.41 171.509C337.605 171.328 335.258 171.148 333.091 170.787C325.689 169.523 318.287 167.717 310.705 166.995C304.205 166.273 297.706 167.717 292.651 172.411C291.568 173.495 290.665 174.758 289.582 175.842C289.401 176.022 288.86 176.203 288.499 176.383C288.499 176.022 287.957 175.661 288.138 175.3C288.138 174.397 288.318 173.675 288.499 172.773C288.86 166.634 286.332 161.579 282.541 157.066C278.75 152.552 273.875 149.303 269.001 146.053C264.307 142.984 259.793 140.095 255.099 136.846C254.558 137.387 253.655 138.29 252.572 139.012C248.961 141.54 245.17 143.706 241.74 146.234C237.587 149.303 233.435 152.372 229.644 155.802C224.408 161.038 221.339 167.356 222.964 175.119C222.964 175.481 222.964 175.661 222.964 176.564C222.242 175.842 221.52 175.481 221.159 174.939C218.631 171.689 215.562 169.523 211.771 168.079C207.799 166.815 203.647 166.273 199.494 166.815C194.078 167.537 188.662 168.62 183.246 169.703C179.274 170.426 175.302 171.148 171.33 172.05C171.15 174.036 170.969 176.203 170.608 178.369C169.345 185.771 167.539 192.993 166.817 200.395C165.914 208.88 167.9 216.643 175.483 221.878C175.844 222.059 175.844 222.601 176.024 222.962C175.663 222.962 175.122 223.323 174.761 223.323C167.539 222.059 161.582 224.767 156.346 229.461C152.374 233.072 149.305 237.224 146.416 241.738C143.167 246.612 140.639 252.028 136.306 256C137.209 257.083 138.292 257.986 139.014 259.069C141.361 262.68 143.708 266.29 146.055 269.901C149.305 274.956 152.916 280.011 157.79 283.803C162.665 287.594 168.081 289.941 174.58 288.677C175.122 288.677 175.483 288.677 176.024 288.677L175.844 288.858ZM151.652 231.627C151.652 231.627 151.291 231.266 151.11 230.905C144.069 223.684 138.112 215.56 132.876 206.894C131.432 204.547 131.432 204.547 134.14 203.825C143.708 201.297 153.277 199.853 163.206 199.853C164.831 199.853 165.373 199.311 165.553 197.687C165.553 195.52 166.095 193.354 166.456 191.187C167.178 187.577 167.9 184.146 168.622 180.536C168.261 180.536 168.081 180.175 167.9 180.175C157.79 178.008 147.861 177.828 137.931 181.258C119.155 187.757 111.031 204.908 118.433 222.962C122.044 231.627 128.182 238.488 135.584 244.265C137.209 245.529 139.014 246.612 140.639 247.876C144.431 242.46 148.041 237.044 151.652 231.627ZM231.269 152.011C236.685 148.22 242.101 144.609 247.336 140.998C247.336 140.998 247.336 140.637 247.156 140.276C242.101 132.513 235.963 126.014 228.019 121.32C220.436 116.987 212.312 114.82 203.647 116.626C193.356 118.792 186.857 125.472 182.524 134.679C178.552 143.345 177.83 152.372 179.094 161.76C179.455 164.107 179.816 166.634 180.177 168.801C186.134 167.717 191.731 166.634 197.328 165.732C199.133 165.551 199.675 164.829 199.675 163.204C199.675 153.636 201.119 144.428 203.466 135.221C204.369 131.43 204.188 131.61 207.438 133.596C216.104 138.832 224.228 144.97 231.449 152.011H231.269ZM280.375 152.011C288.318 144.248 297.165 137.568 307.275 131.971C307.636 133.054 307.997 133.957 308.177 134.86C310.705 144.428 311.969 153.997 312.149 163.926C312.149 165.37 312.691 165.551 313.954 165.732C316.843 166.093 319.912 166.454 322.801 166.995C325.689 167.537 328.578 168.259 331.466 168.801C333.994 159.774 334.175 146.956 330.203 136.665C323.703 120.056 308.719 112.293 292.109 117.528C279.833 121.5 271.167 129.985 264.487 140.637V140.818C269.723 144.428 275.139 148.039 280.555 151.65L280.375 152.011ZM359.991 280.733C359.991 280.733 360.533 281.275 360.713 281.636C367.754 288.858 373.893 296.982 378.948 305.828C380.031 307.633 379.85 307.814 377.864 308.175C370.101 310.341 362.338 311.605 354.214 312.147C351.506 312.147 348.979 312.508 346.632 312.688C345.368 319.188 344.285 325.507 343.021 331.825C344.646 332.186 346.27 332.547 348.076 332.728C358.366 334.353 368.296 333.631 378.045 329.117C391.585 322.798 398.084 310.161 395.196 295.537C393.21 285.969 387.974 278.386 380.934 272.068C377.864 269.179 374.434 266.832 371.185 264.124C367.393 269.901 363.783 275.137 359.991 280.553V280.733ZM164.831 312.508C164.831 312.508 163.567 312.508 162.845 312.508C152.916 312.327 142.986 310.883 133.418 308.175C131.793 307.814 131.612 307.272 132.515 306.009C135.584 301.495 138.292 296.982 141.542 292.649C144.611 288.497 148.222 284.525 151.471 280.553C147.861 275.317 144.25 270.082 140.639 264.666C140.459 264.666 140.098 264.666 139.917 265.027C130.529 271.165 122.947 278.748 118.433 289.038C111.392 305.286 117.531 321.535 133.418 329.117C142.084 333.27 151.291 334.172 160.679 333.089C163.206 332.728 165.914 332.186 168.261 331.825C166.998 325.326 165.734 319.007 164.47 312.508H164.831ZM180.357 343.38C180.357 343.38 180.177 343.741 180.177 344.102C177.83 354.934 177.649 365.766 181.982 376.237C185.773 385.445 192.092 392.486 202.022 395.194C211.229 397.721 219.714 395.555 227.838 391.041C236.143 386.347 242.462 379.487 247.517 371.363C242.101 367.572 236.685 364.141 231.269 360.35C231.269 360.35 230.727 360.711 230.546 360.892C223.325 367.933 215.201 373.89 206.535 379.126C204.369 380.39 204.188 380.39 203.647 377.862C201.119 368.113 199.675 358.364 199.675 348.435C199.675 347.171 199.314 346.629 198.05 346.629C196.606 346.629 195.161 346.449 193.717 346.088C189.384 345.185 184.871 344.282 180.538 343.38H180.357ZM331.286 343.38C331.286 343.38 330.383 343.38 330.022 343.56C324.606 344.643 319.37 345.727 313.954 346.629C312.51 346.81 312.149 347.171 311.969 348.615C311.969 358.545 310.344 368.474 307.816 378.043C307.275 380.39 307.094 380.57 305.108 379.306C300.053 375.876 294.998 372.627 290.124 369.016C286.513 366.308 283.263 363.239 280.014 360.531C274.597 364.141 269.362 367.752 263.946 371.543C270.626 381.834 278.93 390.319 290.846 394.471C305.83 399.707 320.093 394.291 327.675 380.39C331.286 373.71 332.73 366.488 332.911 359.086C332.911 353.851 332.369 348.615 331.105 343.56L331.286 343.38ZM371.004 247.876C371.004 247.876 371.546 247.695 371.726 247.515C378.767 243.001 384.905 237.405 389.419 230.364C393.029 224.767 395.376 218.809 395.737 211.949C396.279 199.672 390.863 190.646 380.211 184.507C370.823 179.091 360.533 178.008 349.881 179.452C347.534 179.813 345.187 180.175 342.84 180.716C342.84 181.438 342.84 181.799 343.021 182.16C344.104 187.396 345.187 192.451 345.909 197.687C346.27 199.672 346.632 200.214 348.617 200.214C358.547 200.214 368.115 201.839 377.684 204.366C379.67 204.908 379.85 205.089 378.767 206.894C374.795 212.671 370.823 218.629 366.491 224.225C364.505 227.114 361.977 229.461 359.811 231.989C363.421 237.405 367.032 242.64 370.823 248.056L371.004 247.876Z" fill="url(#paint2_radial_44_2)"/>
<path fill-rule="evenodd" clip-rule="evenodd" d="M323.702 284.167C323.702 284.167 324.424 285.431 324.785 285.972C330.021 294.096 332.368 302.762 330.021 312.511C327.493 322.802 319.189 330.023 308.717 331.106C300.593 332.009 293.191 329.843 286.331 325.51C285.609 324.968 284.887 324.607 284.164 324.065C283.623 326.412 283.081 328.579 282.359 330.745C280.012 337.967 275.86 343.924 269.36 348.257C258.348 355.479 244.266 352.771 235.6 341.939C231.448 336.703 229.101 330.926 228.018 324.065C227.295 324.427 226.754 324.788 226.212 325.149C220.254 329.12 213.575 331.467 206.353 331.467C190.466 331.467 179.092 318.288 180.898 302.582C181.62 296.443 183.786 291.027 187.036 285.972C187.216 285.611 187.577 285.25 187.758 284.889C187.758 284.889 187.758 284.708 187.758 284.528C185.591 283.986 183.425 283.445 181.259 282.903C172.773 280.014 165.913 274.959 162.122 266.655C157.067 255.823 160.497 243.546 170.426 235.783C175.301 231.992 180.717 229.825 186.675 228.562C187.036 228.562 187.397 228.562 187.758 228.2C186.675 226.395 185.591 224.77 184.689 223.145C180.717 215.563 179.273 207.8 181.439 199.495C183.967 189.927 192.091 182.886 202.02 181.622C210.505 180.539 218.088 182.705 225.129 187.219C225.851 187.76 226.573 188.121 227.295 188.663C228.018 185.955 228.74 183.427 229.462 180.9C231.628 174.762 235.058 169.707 240.294 165.735C251.848 157.25 266.472 159.416 275.679 170.79C279.29 175.303 281.637 180.539 282.901 186.316C282.901 187.038 283.262 187.76 283.442 188.843C284.164 188.302 284.887 187.941 285.609 187.58C291.566 183.608 298.246 181.441 305.468 181.622C319.911 181.983 329.118 191.913 330.382 204.37C331.104 212.674 328.757 220.076 324.244 226.937C324.063 227.298 323.702 227.839 323.521 228.2C323.521 228.2 323.521 228.381 323.521 228.562C326.771 229.464 330.021 230.367 332.909 231.631C339.589 234.339 344.825 238.672 348.255 245.171C353.852 255.642 351.324 268.099 342.117 276.223C336.881 280.737 330.923 283.264 324.244 284.528C323.882 284.528 323.702 284.528 323.16 284.708L323.702 284.167ZM182.161 305.29C182.161 306.553 182.342 307.998 182.522 309.261C184.328 322.08 194.438 329.843 207.256 329.662C214.658 329.662 221.157 326.773 226.934 322.441C228.74 320.996 228.92 321.177 229.281 323.343C230.365 329.843 232.712 335.62 236.864 340.855C245.349 351.326 259.07 353.493 269.722 345.73C277.124 340.314 280.915 332.731 282.359 323.885C282.901 321.177 282.901 320.996 285.248 322.802C292.108 327.676 299.691 330.384 308.356 329.482C321.536 328.037 329.84 317.927 329.66 304.567C329.66 297.165 326.771 290.666 322.438 284.889C321.174 283.084 321.174 282.903 323.521 282.542C330.743 281.459 337.062 278.751 342.297 273.876C352.227 264.669 353.129 250.226 344.103 240.116C338.686 234.158 331.826 230.909 324.063 229.645C320.994 229.103 320.994 229.103 322.799 226.756C327.674 219.896 330.382 212.494 329.479 203.828C328.035 190.288 317.203 181.803 303.843 182.344C296.802 182.705 290.664 185.233 285.067 189.385C283.262 190.829 282.901 190.649 282.54 188.302C281.456 181.08 278.568 174.762 273.693 169.346C264.305 159.235 249.14 158.874 239.391 168.443C233.795 173.859 230.726 180.539 229.462 188.302C229.101 190.829 228.92 190.829 226.934 189.385C221.338 185.233 215.199 182.525 208.159 182.344C198.59 181.983 190.646 185.233 185.772 193.718C180.717 202.384 181.439 211.411 185.591 220.257C186.675 222.784 188.48 225.131 189.924 227.478C190.646 228.562 190.646 229.103 189.202 229.284C188.841 229.284 188.48 229.284 188.119 229.464C180.717 230.547 174.218 233.436 168.982 238.852C160.497 247.518 158.872 259.433 165.913 269.363C171.329 277.126 179.092 280.917 188.119 282.542C190.646 282.903 190.827 283.084 189.383 285.25C185.05 291.208 182.522 297.888 182.161 305.29Z" fill="url(#paint3_radial_44_2)"/>
<path fill-rule="evenodd" clip-rule="evenodd" d="M278.928 311.244C278.386 314.855 278.025 318.466 277.303 322.076C276.22 326.951 274.234 331.464 270.984 335.256C261.957 345.907 247.875 345.185 239.932 333.631C236.141 328.215 234.335 322.076 233.794 315.577C233.794 314.133 233.613 312.689 233.433 311.064C231.988 312.327 230.724 313.591 229.28 314.674C223.322 319.549 216.643 322.799 208.699 322.799C195.7 322.799 188.118 313.05 189.923 300.232C190.826 293.191 194.256 287.052 198.95 281.636C199.672 280.914 200.394 280.192 200.936 279.289C200.936 279.289 200.936 279.289 200.936 278.928C198.589 278.748 196.242 278.567 194.076 278.206C187.937 277.303 182.16 275.318 177.286 271.346C166.273 262.319 166.995 248.056 178.549 240.113C183.965 236.322 190.104 234.516 196.603 233.975C198.047 233.975 199.492 233.794 201.116 233.614C199.672 231.989 198.408 230.725 197.325 229.281C192.27 222.962 189.021 215.921 189.562 207.436C190.104 197.506 197.325 190.104 207.435 189.924C216.643 189.743 224.225 193.534 230.905 199.492C231.627 200.034 232.169 200.756 232.891 201.297C232.891 201.297 232.891 201.297 233.071 201.297C233.433 198.228 233.794 194.979 234.335 191.91C235.418 186.132 237.765 180.897 241.737 176.564C250.042 167.537 262.138 167.718 270.262 176.744C275.498 182.702 277.664 189.743 278.206 197.326C278.206 198.589 278.206 199.673 278.386 200.936C278.386 200.936 278.386 200.936 278.386 201.297C278.747 200.936 279.108 200.756 279.469 200.575C285.246 195.159 291.565 191.187 299.509 190.104C314.674 187.938 323.701 198.589 321.895 211.949C320.993 219.893 317.021 226.392 311.605 232.169C311.244 232.53 310.883 232.891 310.522 233.433C313.771 233.794 317.021 234.155 320.09 234.697C326.77 235.961 332.908 238.849 337.422 244.265C343.74 251.487 343.74 261.055 337.422 268.277C332.186 274.415 325.326 277.123 317.563 278.206C315.216 278.567 312.869 278.748 310.341 278.928C311.785 280.553 313.049 281.817 314.132 283.442C318.826 289.399 322.076 296.079 322.076 303.842C322.076 316.841 312.146 323.882 300.231 322.618C292.648 321.715 286.33 318.105 280.733 313.23C280.011 312.689 279.469 311.966 278.747 311.425C278.747 311.425 278.747 311.425 278.567 311.425L278.928 311.244ZM199.672 277.303C200.755 277.303 201.839 277.303 202.922 277.303C203.283 277.303 203.825 277.484 204.005 277.845C204.005 278.026 204.005 278.567 203.644 278.928C202.922 279.65 202.2 280.373 201.478 281.095C196.242 286.511 192.451 293.01 191.187 300.593C189.743 309.258 194.076 317.202 201.658 320.091C206.533 321.896 211.407 321.535 216.282 320.091C222.961 317.924 228.197 314.133 233.071 309.078C233.433 308.717 233.974 308.536 234.516 308.175C234.516 308.717 234.877 309.258 234.877 309.8C235.238 313.411 235.238 317.021 235.96 320.632C237.404 327.673 240.654 333.992 246.792 338.325C250.222 340.672 254.194 341.755 258.347 341.033C264.665 339.95 268.998 335.978 272.248 330.562C275.859 324.604 277.122 318.105 277.122 311.244C277.122 310.161 277.483 309.258 277.483 308.175C278.386 308.897 279.289 309.258 280.011 309.981C285.969 315.758 292.649 319.91 300.953 320.993C310.161 322.257 318.646 316.66 320.451 307.995C321.534 302.759 320.451 297.704 318.646 292.83C316.479 287.413 312.869 283.081 308.716 279.109C308.355 278.748 308.175 278.206 307.994 277.664C308.536 277.664 308.897 277.303 309.438 277.303C312.146 277.303 315.035 277.303 317.743 276.762C325.145 275.679 331.825 272.971 336.88 267.013C342.296 260.513 342.296 252.389 337.061 245.709C333.63 241.557 329.297 238.849 324.242 237.224C319.368 235.599 314.493 235.058 309.438 235.238C308.897 235.238 308.536 234.877 307.994 234.697C308.175 234.336 308.355 233.794 308.536 233.433C308.716 233.072 309.077 232.891 309.258 232.711C315.396 226.753 319.729 219.893 320.812 211.227C321.895 203.103 317.743 195.34 310.341 192.632C306.369 191.007 302.217 191.007 298.065 191.91C290.663 193.534 284.705 197.687 279.469 203.103C278.928 203.644 278.206 204.006 277.483 204.367C277.483 203.644 277.122 202.922 277.122 202.2C277.122 194.257 275.678 186.855 271.165 180.355C267.734 175.481 263.221 171.87 257.083 171.509C249.5 171.148 244.084 175.12 240.112 181.258C235.96 187.757 234.696 195.159 234.877 202.742C234.877 203.283 234.696 203.825 234.516 204.367C233.974 204.186 233.613 204.006 233.252 203.644C232.53 202.922 231.808 202.2 231.266 201.659C225.85 196.423 219.531 192.812 211.949 191.549C203.825 190.285 196.061 193.895 192.812 201.117C190.826 205.269 190.826 209.783 191.729 214.296C193.353 221.698 197.506 227.836 202.922 233.072C203.463 233.614 203.644 234.336 204.186 234.877C203.463 234.877 202.922 235.238 202.2 235.238C196.242 235.238 190.284 235.961 184.868 238.669C182.16 240.113 179.452 241.738 177.105 243.724C168.62 251.848 169.161 263.041 178.369 270.443C184.688 275.498 191.909 277.303 199.853 277.484L199.672 277.303Z" fill="url(#paint4_radial_44_2)"/>
<path fill-rule="evenodd" clip-rule="evenodd" d="M238.669 214.661C242.099 206.176 245.349 197.69 249.14 189.386C250.584 186.136 252.931 183.428 254.917 180.359C255.82 178.915 256.542 179.095 257.444 180.359C262.861 187.761 267.013 195.704 269.36 204.551C269.721 205.814 270.443 207.078 270.985 208.342C271.887 210.508 272.61 212.675 273.332 214.841C276.762 213.397 280.553 211.953 283.803 210.147C291.566 205.814 299.69 203.106 308.536 201.843C310.883 201.482 311.064 201.843 310.703 204.009C309.258 212.494 306.731 220.799 302.398 228.382C301.315 230.548 300.593 232.895 299.509 235.061C298.968 236.506 298.065 237.769 297.343 239.033C301.134 240.478 304.926 242.102 308.717 243.366C317.202 245.894 324.965 249.865 332.006 255.101C332.367 255.462 332.909 255.643 333.631 256.004C332.728 256.726 332.367 257.087 332.006 257.448C324.424 263.045 316.119 267.377 306.911 269.544C306.189 269.544 305.648 270.086 304.926 270.266C302.398 271.349 299.871 272.252 297.524 273.335C300.773 280.557 304.384 287.959 307.273 295.541C308.897 299.694 309.439 304.026 310.522 308.359C311.064 310.706 310.522 310.887 308.356 310.526C299.69 309.081 291.385 306.373 283.622 302.04C281.636 300.957 279.289 300.235 277.123 299.332C275.859 298.791 274.595 298.069 273.512 297.347C272.068 300.957 270.443 304.568 269.36 308.359C266.832 317.025 262.861 324.788 257.625 332.01C257.264 332.371 256.903 332.912 256.361 333.454C246.793 323.163 244.085 309.804 239.21 297.527C233.072 300.416 226.934 303.304 220.796 306.193C215.379 308.54 209.602 309.984 203.825 310.706C201.839 311.067 201.659 310.706 202.02 308.901C203.283 299.694 206.172 291.208 210.866 283.084C211.408 282.181 211.588 281.279 211.949 280.376C213.032 278.029 213.935 275.682 215.018 273.155C208.88 270.988 202.742 268.822 196.604 266.475C190.826 264.308 185.591 261.059 180.536 257.267C179.092 256.184 179.092 256.004 180.536 254.74C188.118 249.143 196.423 244.81 205.63 242.644C205.992 242.644 206.353 242.644 206.714 242.283C209.422 241.019 212.13 239.936 215.018 238.672C213.394 235.061 211.769 231.09 209.783 227.479C205.63 219.716 203.103 211.592 201.839 202.926C201.839 201.662 202.2 201.301 203.283 201.482C212.13 202.745 220.434 205.273 228.198 209.606C229.822 210.508 231.447 211.05 233.072 211.772C235.058 212.675 237.044 213.578 238.849 214.48L238.669 214.661ZM240.113 295.18C240.113 295.18 240.474 296.444 240.655 296.985C241.377 300.957 243.002 304.387 245.529 307.276C251.667 313.956 261.236 313.775 267.013 306.734C269.54 303.846 270.804 300.416 271.526 296.805C271.887 294.458 271.887 294.639 274.054 295.722C276.04 296.985 278.206 298.069 280.373 298.791C288.677 301.499 296.801 297.708 299.148 289.945C300.593 285.251 299.871 280.737 297.524 276.404C296.801 274.96 295.899 273.696 294.816 272.071C295.538 271.891 296.079 271.53 296.621 271.53C300.412 270.808 303.842 269.363 306.731 267.016C312.869 261.781 313.952 253.837 309.078 247.338C306.009 243.366 301.856 241.38 296.982 240.478C296.26 240.478 295.538 240.116 294.635 239.755C295.177 238.853 295.718 238.492 295.899 237.769C297.162 235.061 298.787 232.534 299.329 229.645C301.315 220.618 295.718 212.855 286.691 212.133C281.997 211.772 277.665 213.397 273.693 216.105C272.068 217.188 271.887 217.188 271.526 215.202C270.804 211.231 269.179 207.62 266.471 204.551C260.514 198.051 251.126 198.232 245.349 204.731C242.64 207.8 241.196 211.231 240.474 215.202C240.113 217.369 239.932 217.369 238.127 216.105C236.141 214.841 233.975 213.758 231.808 213.036C222.781 210.147 214.296 214.661 212.671 222.965C211.588 228.382 213.032 233.437 216.282 237.95C217.546 239.755 217.546 240.116 215.379 240.478C211.408 241.2 207.797 242.824 204.908 245.533C199.312 250.588 198.409 258.17 202.922 264.308C205.992 268.641 210.324 270.627 215.56 271.71C217.726 272.071 217.726 272.252 216.643 274.057C215.56 275.863 214.477 277.668 213.755 279.654C211.769 285.431 212.13 291.028 216.463 295.722C220.796 300.235 226.392 300.957 232.169 299.152C234.877 298.249 237.585 296.624 240.474 295.361L240.113 295.18Z" fill="url(#paint5_radial_44_2)"/>
<path fill-rule="evenodd" clip-rule="evenodd" d="M289.399 269.905C290.302 270.988 290.843 271.71 291.385 272.432C293.912 275.682 295.718 279.293 295.898 283.445C296.44 291.75 290.482 297.527 281.275 295.902C277.484 295.18 274.234 293.374 271.345 290.847C270.804 290.486 270.443 290.125 269.901 289.764C269.54 291.93 269.36 294.097 268.818 296.082C267.915 299.874 265.929 303.304 262.86 305.831C257.625 309.803 250.584 308.72 246.431 302.943C244.084 299.693 242.821 296.082 242.46 292.111C242.46 291.389 242.46 290.666 242.279 289.583C241.557 290.125 241.015 290.486 240.654 291.027C236.682 294.277 232.169 296.444 226.933 296.082C220.254 295.721 215.74 290.486 216.282 283.625C216.643 279.112 218.448 275.14 221.337 271.71C221.698 271.168 222.239 270.807 222.601 270.085C220.434 269.724 218.268 269.544 216.282 269.002C213.213 268.28 210.505 267.016 208.158 264.669C202.561 259.253 202.742 252.032 208.699 246.977C211.949 244.268 215.921 243.005 220.073 242.463C220.795 242.463 221.517 242.463 222.601 242.283C221.698 241.199 220.976 240.116 220.254 239.213C217.546 235.422 215.74 231.27 216.282 226.576C216.823 219.896 222.059 215.563 228.739 216.105C233.433 216.466 237.405 218.452 240.835 221.34C241.196 221.701 241.737 222.062 242.46 222.604C242.46 218.452 243.362 214.66 245.168 211.411C247.154 207.8 250.042 205.092 254.375 204.37C259.249 203.467 263.041 205.634 265.929 209.425C268.818 213.216 269.901 217.73 270.082 222.785C270.804 222.243 271.165 221.882 271.707 221.521C274.956 218.813 278.567 216.827 282.9 216.285C291.927 215.202 297.884 222.062 296.079 230.909C295.176 234.881 293.912 237.228 289.941 242.102C290.843 242.102 291.385 242.463 292.107 242.463C296.621 242.824 300.953 244.268 304.384 247.518C310.161 253.115 309.619 261.058 303.12 265.752C299.329 268.46 294.996 269.544 289.941 269.724L289.399 269.905ZM268.096 222.424C268.096 217.73 267.013 213.216 263.943 209.605C259.611 204.55 253.292 204.189 248.778 209.064C247.515 210.328 246.612 211.952 245.709 213.577C244.084 216.827 243.723 220.438 243.723 224.048C243.723 224.59 243.362 224.951 243.182 225.493C242.821 225.312 242.279 225.132 241.918 224.77C240.113 223.326 238.488 221.701 236.502 220.438C233.794 218.632 230.725 217.549 227.475 217.73C220.254 218.091 216.101 223.687 217.726 230.909C218.809 235.422 221.156 239.033 224.406 242.102C224.767 242.463 224.948 243.005 225.128 243.366C224.586 243.366 224.225 243.727 223.684 243.907C222.601 243.907 221.337 243.907 220.254 243.907C216.823 244.268 213.393 245.352 210.505 247.338C203.644 252.032 203.644 260.336 210.505 265.03C214.296 267.558 218.629 268.641 223.323 268.46C223.864 268.46 224.406 268.641 224.948 268.821C224.586 269.363 224.406 270.085 224.045 270.446C220.976 273.515 218.629 277.126 217.546 281.459C215.56 289.944 221.878 296.263 230.364 294.458C234.516 293.555 238.127 291.389 241.196 288.319C241.737 287.778 242.46 287.417 243.182 287.056C243.182 287.778 243.543 288.68 243.543 289.403C243.543 293.555 244.445 297.527 246.612 300.957C251.486 308.539 260.152 308.539 265.027 300.957C267.374 297.166 268.096 293.194 268.096 288.861C268.096 288.319 268.457 287.597 268.457 287.056C268.998 287.417 269.721 287.597 270.082 287.958C273.331 291.208 276.942 293.555 281.455 294.458C289.038 296.082 294.815 291.027 294.274 283.445C293.912 278.209 291.204 274.238 287.594 270.627C287.233 270.266 286.872 269.544 286.511 269.002C287.233 269.002 287.774 268.46 288.496 268.46C292.829 268.46 296.982 267.558 300.773 265.211C308.175 260.336 307.994 251.49 300.412 246.977C296.801 244.63 292.649 243.907 288.496 243.907C287.774 243.907 287.233 243.546 286.511 243.366C286.872 242.824 287.052 242.283 287.594 241.741C290.663 238.672 293.01 235.061 293.913 230.728C295.718 222.785 290.482 216.827 282.539 217.73C277.845 218.271 274.234 220.618 270.804 223.507C270.082 224.229 269.179 224.59 268.457 225.312C268.276 224.409 267.915 223.326 267.735 222.424H268.096Z" fill="url(#paint6_radial_44_2)"/>
<path fill-rule="evenodd" clip-rule="evenodd" d="M246.615 232.894C248.24 222.243 252.032 213.035 256.184 209.786C261.781 216.646 264.85 224.409 265.391 233.436C265.933 233.075 266.294 232.714 266.836 232.353C272.793 227.298 279.654 224.59 287.236 223.326C289.042 222.965 289.222 223.326 288.861 225.131C287.597 232.894 284.709 239.935 279.473 245.893L279.293 246.254C283.445 247.337 287.597 248.059 291.569 249.504C295.721 250.948 299.332 253.114 302.762 256.184C295.721 261.961 287.958 264.849 278.932 265.571C279.473 266.294 279.834 266.655 280.195 267.196C285.07 273.154 287.778 280.014 289.042 287.597C289.222 289.041 288.681 289.222 287.417 289.041C279.654 287.777 272.613 284.889 266.655 279.834C266.475 279.653 266.113 279.473 265.572 279.112C265.03 288.139 261.961 295.902 256.184 302.943C250.407 295.902 247.338 288.139 246.796 279.112C246.254 279.473 245.893 279.653 245.532 280.014C239.575 285.069 232.534 287.958 224.951 289.222C223.146 289.583 223.326 288.5 223.507 287.236C224.771 279.473 227.659 272.432 232.895 266.474C232.895 266.474 233.075 266.113 233.436 265.752C224.409 265.21 216.646 262.141 209.605 256.364C216.646 250.767 224.409 247.518 233.617 246.976C227.659 240.116 224.409 232.533 223.326 223.506C227.84 223.506 231.992 224.77 235.783 226.576C239.575 228.381 243.185 230.908 246.977 233.075L246.615 232.894ZM277.848 256.184C277.848 244.268 268.099 234.339 256.003 234.339C244.088 234.339 234.158 244.268 234.158 256.184C234.158 268.28 243.907 278.029 256.003 278.029C268.099 278.029 277.848 268.28 277.848 256.184ZM300.415 256.184C293.736 251.309 286.514 248.42 278.029 248.24C279.654 253.656 279.654 258.711 278.029 264.127C286.334 263.947 293.555 261.058 300.415 256.184ZM246.074 234.88C239.936 229.284 233.075 226.034 224.771 224.77C226.034 233.075 229.284 240.116 234.881 246.074C238.672 239.935 239.575 239.033 246.074 234.88ZM264.128 278.029C258.711 279.834 253.656 279.653 248.24 278.029C248.421 286.333 251.309 293.735 256.184 300.415C261.058 293.555 263.766 286.333 264.128 278.029ZM211.952 256.184C218.632 261.058 225.854 263.766 234.339 263.947C232.534 258.711 232.714 253.476 234.339 248.24C227.84 247.698 217.73 251.309 212.133 256.003L211.952 256.184ZM264.128 234.158C264.128 225.853 261.239 218.632 256.364 211.952C252.032 216.104 247.518 228.561 248.601 234.158C253.656 232.353 258.892 232.533 264.128 234.158ZM246.254 277.306C241.199 274.779 237.589 271.168 235.061 266.113C229.284 272.251 226.034 279.292 224.771 287.597C233.075 286.333 240.116 283.084 246.254 277.306ZM287.597 224.77C279.293 226.034 272.252 229.284 266.113 235.061C271.168 237.588 274.779 241.199 277.307 246.254C283.084 240.116 286.334 233.075 287.597 224.77ZM287.597 287.416C286.334 279.112 283.084 272.251 277.487 266.113C274.96 271.168 271.349 274.779 266.475 277.126C269.905 281.639 280.917 287.055 287.597 287.236V287.416Z" fill="url(#paint7_radial_44_2)"/>
<path fill-rule="evenodd" clip-rule="evenodd" d="M238.307 256C238.307 246.251 246.251 238.488 256 238.488C265.749 238.488 273.512 246.432 273.512 256.181C273.512 265.93 265.569 273.693 255.639 273.693C245.89 273.693 238.127 265.749 238.127 255.82L238.307 256ZM239.752 256C239.752 264.847 246.973 272.249 255.82 272.249C264.846 272.249 272.248 264.847 272.248 256C272.248 247.154 265.027 239.752 256 239.752C246.973 239.752 239.752 246.974 239.571 256H239.752Z" fill="url(#paint8_radial_44_2)"/>
<path fill-rule="evenodd" clip-rule="evenodd" d="M208.337 0.180537C209.781 1.26376 210.865 2.34698 210.684 4.33288C210.684 6.13825 209.24 7.58254 207.434 7.76307C205.81 8.12415 204.185 7.22147 203.282 5.59664C202.56 3.97181 202.921 2.16644 204.185 0.902683C204.546 0.54161 205.087 0.54161 205.268 0H208.157L208.337 0.180537Z" fill="url(#paint9_radial_44_2)"/>
<path fill-rule="evenodd" clip-rule="evenodd" d="M0 303.481C0.902683 302.398 1.80537 301.134 3.4302 301.134C5.4161 301.134 6.86039 302.037 7.58254 303.842C8.12415 305.647 7.58254 307.453 5.77717 308.355C4.15234 309.258 2.34698 308.897 0.902683 307.633C0.54161 307.272 0.54161 306.731 0 306.55V303.661L0 303.481Z" fill="url(#paint10_radial_44_2)"/>
<path fill-rule="evenodd" clip-rule="evenodd" d="M511.639 205.991C511.639 205.991 511.819 205.991 512 205.991V207.796C511.458 207.254 511.458 206.532 512 205.991H511.639Z" fill="url(#paint11_radial_44_2)"/>
<path fill-rule="evenodd" clip-rule="evenodd" d="M303.664 512.18C303.664 512.18 303.664 512 303.664 511.819C304.386 511.278 304.928 511.278 305.469 511.819C305.469 511.819 305.469 512 305.469 512.18H303.664Z" fill="url(#paint12_radial_44_2)"/>
<path fill-rule="evenodd" clip-rule="evenodd" d="M511.278 307.094C511.278 309.441 509.653 311.426 507.306 311.426C505.139 311.426 503.515 309.802 503.515 307.635C503.515 305.288 505.14 303.302 507.486 303.302C509.653 303.302 511.278 305.108 511.278 307.094Z" fill="url(#paint13_radial_44_2)"/>
<path fill-rule="evenodd" clip-rule="evenodd" d="M466.146 114.282C466.146 112.115 467.771 110.491 469.757 110.491C471.924 110.491 473.729 112.115 473.729 114.282C473.729 116.448 472.104 118.254 469.757 118.073C467.591 118.073 465.966 116.448 465.966 114.282H466.146Z" fill="url(#paint14_radial_44_2)"/>
<path fill-rule="evenodd" clip-rule="evenodd" d="M118.073 42.0649C118.073 44.2313 116.267 45.8562 114.101 45.8562C111.934 45.8562 110.31 44.0508 110.31 42.0649C110.31 39.8985 112.115 38.2736 114.101 38.2736C116.267 38.2736 117.892 40.079 117.892 42.2454L118.073 42.0649Z" fill="url(#paint15_radial_44_2)"/>
<path fill-rule="evenodd" clip-rule="evenodd" d="M45.497 397.723C45.497 399.89 43.6916 401.515 41.7057 401.515C39.5393 401.515 37.7339 399.709 37.7339 397.543C37.7339 395.376 39.5393 393.751 41.7057 393.751C43.8721 393.751 45.497 395.376 45.3164 397.543L45.497 397.723Z" fill="url(#paint16_radial_44_2)"/>
<path fill-rule="evenodd" clip-rule="evenodd" d="M208.341 507.487C208.341 509.653 206.717 511.459 204.731 511.459C202.564 511.459 200.759 509.834 200.759 507.668C200.759 505.501 202.384 503.876 204.55 503.876C206.716 503.876 208.341 505.501 208.341 507.668V507.487Z" fill="url(#paint17_radial_44_2)"/>
<path fill-rule="evenodd" clip-rule="evenodd" d="M468.492 403.679C466.326 403.679 464.701 401.873 464.701 399.888C464.701 397.902 466.507 396.096 468.673 396.096C470.839 396.096 472.464 397.721 472.464 399.888C472.464 402.054 470.659 403.679 468.492 403.679Z" fill="url(#paint18_radial_44_2)"/>
<path fill-rule="evenodd" clip-rule="evenodd" d="M307.094 8.30532C304.927 8.30532 303.302 6.68049 303.302 4.69458C303.302 2.52814 304.927 0.722778 307.094 0.722778C309.26 0.722778 311.065 2.52814 311.065 4.69458C311.065 6.86102 309.26 8.48585 307.274 8.48585L307.094 8.30532Z" fill="url(#paint19_radial_44_2)"/>
<path fill-rule="evenodd" clip-rule="evenodd" d="M511.642 205.991C511.642 205.991 511.642 207.255 511.642 207.796C510.919 211.046 506.767 211.587 504.962 209.601C503.517 207.977 503.517 205.449 505.323 204.005C506.948 202.561 509.656 202.741 510.919 204.546C511.281 204.908 511.461 205.449 511.642 205.81V205.991Z" fill="url(#paint20_radial_44_2)"/>
<path fill-rule="evenodd" clip-rule="evenodd" d="M397.362 474.091C395.196 474.091 393.571 472.647 393.571 470.48C393.571 468.314 395.196 466.508 397.362 466.508C399.348 466.508 401.153 468.314 401.153 470.3C401.153 472.466 399.529 474.091 397.362 474.091Z" fill="url(#paint21_radial_44_2)"/>
<path fill-rule="evenodd" clip-rule="evenodd" d="M305.647 511.822C305.647 511.822 304.383 511.822 303.842 511.822C301.856 510.92 300.953 509.656 300.953 507.851C300.953 506.045 302.036 504.962 303.661 504.42C305.828 503.879 307.814 504.962 308.355 506.948C309.077 509.114 307.994 510.92 305.467 511.822H305.647Z" fill="url(#paint22_radial_44_2)"/>
<path fill-rule="evenodd" clip-rule="evenodd" d="M42.9659 108.683C45.1324 108.683 46.7572 110.308 46.7572 112.475C46.7572 114.641 44.7713 116.446 42.7854 116.446C40.7995 116.446 38.9941 114.641 38.9941 112.475C38.9941 110.308 40.619 108.683 42.7854 108.683H42.9659Z" fill="url(#paint23_radial_44_2)"/>
<path fill-rule="evenodd" clip-rule="evenodd" d="M4.33339 200.935C6.31929 200.935 8.12466 202.56 8.30519 204.726C8.30519 206.712 6.68036 208.518 4.69446 208.698C2.52802 208.698 0.722656 206.893 0.722656 204.907C0.722656 202.921 2.52802 201.116 4.51393 200.935H4.33339Z" fill="url(#paint24_radial_44_2)"/>
<path fill-rule="evenodd" clip-rule="evenodd" d="M115.904 469.034C115.904 471.201 114.099 472.826 111.932 472.645C109.766 472.645 108.141 470.84 108.141 468.854C108.141 466.687 109.946 465.062 112.113 465.062C114.279 465.062 115.724 466.868 115.724 469.034H115.904Z" fill="url(#paint25_radial_44_2)"/>
<path fill-rule="evenodd" clip-rule="evenodd" d="M403.317 43.1492C403.317 45.3156 401.512 46.9404 399.526 46.9404C397.54 46.9404 395.735 45.1351 395.735 43.1492C395.735 40.9827 397.54 39.3579 399.707 39.3579C401.873 39.3579 403.498 41.1633 403.498 43.1492H403.317Z" fill="url(#paint26_radial_44_2)"/>
<path fill-rule="evenodd" clip-rule="evenodd" d="M283.439 254.197C284.703 254.197 285.606 254.919 285.606 256.363C285.606 257.807 284.883 258.53 283.439 258.71C282.175 258.71 280.912 257.627 280.912 256.363C280.912 255.099 281.814 254.197 283.259 254.016L283.439 254.197Z" fill="url(#paint27_radial_44_2)"/>
<path fill-rule="evenodd" clip-rule="evenodd" d="M257.983 283.444C257.983 284.888 257.261 285.61 255.817 285.791C254.372 285.791 253.47 284.708 253.47 283.444C253.47 281.999 254.372 281.277 255.817 281.277C257.261 281.277 257.983 282.18 258.164 283.624L257.983 283.444Z" fill="url(#paint28_radial_44_2)"/>
<path fill-rule="evenodd" clip-rule="evenodd" d="M239.211 236.864C239.211 238.127 238.489 239.03 237.045 239.03C235.6 239.03 234.878 238.308 234.698 236.864C234.698 235.6 235.6 234.336 237.045 234.336C238.489 234.336 239.211 235.239 239.392 236.864H239.211Z" fill="url(#paint29_radial_44_2)"/>
<path fill-rule="evenodd" clip-rule="evenodd" d="M231.085 256.002C231.085 257.266 230.363 258.168 228.738 258.168C227.294 258.168 226.211 257.085 226.391 255.821C226.391 254.377 227.294 253.655 228.738 253.655C230.183 253.655 230.905 254.557 231.085 256.002Z" fill="url(#paint30_radial_44_2)"/>
<path fill-rule="evenodd" clip-rule="evenodd" d="M256.54 226.574C257.623 226.755 258.706 227.477 258.706 228.921C258.706 230.365 257.623 231.449 256.359 231.268C254.915 231.268 254.193 230.365 254.193 228.921C254.193 227.657 255.276 226.574 256.72 226.574H256.54Z" fill="url(#paint31_radial_44_2)"/>
<path fill-rule="evenodd" clip-rule="evenodd" d="M236.683 272.973C237.947 272.973 238.85 273.876 238.85 275.32C238.85 276.765 237.947 277.487 236.503 277.487C235.058 277.487 234.156 276.404 234.156 275.14C234.156 273.696 235.058 272.973 236.683 272.973Z" fill="url(#paint32_radial_44_2)"/>
<path fill-rule="evenodd" clip-rule="evenodd" d="M275.678 234.878C277.122 234.878 278.025 235.781 278.025 237.045C278.025 238.489 277.122 239.211 275.858 239.392C274.414 239.392 273.511 238.308 273.511 237.045C273.511 235.781 274.594 234.878 275.858 234.878H275.678Z" fill="url(#paint33_radial_44_2)"/>
<path fill-rule="evenodd" clip-rule="evenodd" d="M272.788 276.043C272.788 274.418 273.872 273.335 275.135 273.335C276.58 273.335 277.302 274.238 277.302 275.682C277.302 276.946 276.038 278.209 274.774 278.029C273.33 278.029 272.608 277.126 272.608 275.862L272.788 276.043Z" fill="url(#paint34_radial_44_2)"/>
<defs>
<radialGradient id="paint0_radial_44_2" cx="0" cy="0" r="1" gradientUnits="userSpaceOnUse" gradientTransform="translate(256.156 254.164) scale(443.21 445.264)">
<stop stop-color="#370C5C"/>
<stop offset="0.432692" stop-color="#6333A6"/>
<stop offset="0.82" stop-color="#277AB0"/>
<stop offset="1" stop-color="#3C155A"/>
</radialGradient>
<radialGradient id="paint1_radial_44_2" cx="0" cy="0" r="1" gradientUnits="userSpaceOnUse" gradientTransform="translate(256 254.736) scale(289.581 289.581)">
<stop stop-color="#370C5C"/>
<stop offset="0.432692" stop-color="#6333A6"/>
<stop offset="0.82" stop-color="#277AB0"/>
<stop offset="1" stop-color="#3C155A"/>
</radialGradient>
<radialGradient id="paint2_radial_44_2" cx="0" cy="0" r="1" gradientUnits="userSpaceOnUse" gradientTransform="translate(256.444 255.118) scale(259.784 260.074)">
<stop stop-color="#370C5C"/>
<stop offset="0.432692" stop-color="#6333A6"/>
<stop offset="0.82" stop-color="#277AB0"/>
<stop offset="1" stop-color="#3C155A"/>
</radialGradient>
<radialGradient id="paint3_radial_44_2" cx="0" cy="0" r="1" gradientUnits="userSpaceOnUse" gradientTransform="translate(255.676 255.416) scale(175.525 176.17)">
<stop stop-color="#370C5C"/>
<stop offset="0.432692" stop-color="#6333A6"/>
<stop offset="0.82" stop-color="#277AB0"/>
<stop offset="1" stop-color="#3C155A"/>
</radialGradient>
<radialGradient id="paint4_radial_44_2" cx="0" cy="0" r="1" gradientUnits="userSpaceOnUse" gradientTransform="translate(255.951 255.425) scale(158.396 158.888)">
<stop stop-color="#370C5C"/>
<stop offset="0.432692" stop-color="#6333A6"/>
<stop offset="0.82" stop-color="#277AB0"/>
<stop offset="1" stop-color="#3C155A"/>
</radialGradient>
<radialGradient id="paint5_radial_44_2" cx="0" cy="0" r="1" gradientUnits="userSpaceOnUse" gradientTransform="translate(256.677 255.584) scale(141.39 141.614)">
<stop stop-color="#370C5C"/>
<stop offset="0.432692" stop-color="#6333A6"/>
<stop offset="0.82" stop-color="#277AB0"/>
<stop offset="1" stop-color="#3C155A"/>
</radialGradient>
<radialGradient id="paint6_radial_44_2" cx="0" cy="0" r="1" gradientUnits="userSpaceOnUse" gradientTransform="translate(256.328 255.63) scale(95.6389 95.592)">
<stop stop-color="#370C5C"/>
<stop offset="0.432692" stop-color="#6333A6"/>
<stop offset="0.82" stop-color="#277AB0"/>
<stop offset="1" stop-color="#3C155A"/>
</radialGradient>
<radialGradient id="paint7_radial_44_2" cx="0" cy="0" r="1" gradientUnits="userSpaceOnUse" gradientTransform="translate(256.266 255.872) scale(85.4301 85.6021)">
<stop stop-color="#370C5C"/>
<stop offset="0.432692" stop-color="#6333A6"/>
<stop offset="0.82" stop-color="#277AB0"/>
<stop offset="1" stop-color="#3C155A"/>
</radialGradient>
<radialGradient id="paint8_radial_44_2" cx="0" cy="0" r="1" gradientUnits="userSpaceOnUse" gradientTransform="translate(255.851 255.905) scale(32.4502 32.3496)">
<stop stop-color="#370C5C"/>
<stop offset="0.432692" stop-color="#6333A6"/>
<stop offset="0.82" stop-color="#277AB0"/>
<stop offset="1" stop-color="#3C155A"/>
</radialGradient>
<radialGradient id="paint9_radial_44_2" cx="0" cy="0" r="1" gradientUnits="userSpaceOnUse" gradientTransform="translate(206.816 3.87962) scale(7.14362 7.20613)">
<stop stop-color="#370C5C"/>
<stop offset="0.432692" stop-color="#6333A6"/>
<stop offset="0.82" stop-color="#277AB0"/>
<stop offset="1" stop-color="#3C155A"/>
</radialGradient>
<radialGradient id="paint10_radial_44_2" cx="0" cy="0" r="1" gradientUnits="userSpaceOnUse" gradientTransform="translate(3.8983 304.955) scale(7.13736 7.09659)">
<stop stop-color="#370C5C"/>
<stop offset="0.432692" stop-color="#6333A6"/>
<stop offset="0.82" stop-color="#277AB0"/>
<stop offset="1" stop-color="#3C155A"/>
</radialGradient>
<radialGradient id="paint11_radial_44_2" cx="0" cy="0" r="1" gradientUnits="userSpaceOnUse" gradientTransform="translate(511.797 206.884) scale(0.372515 1.65896)">
<stop stop-color="#370C5C"/>
<stop offset="0.432692" stop-color="#6333A6"/>
<stop offset="0.82" stop-color="#277AB0"/>
<stop offset="1" stop-color="#3C155A"/>
</radialGradient>
<radialGradient id="paint12_radial_44_2" cx="0" cy="0" r="1" gradientUnits="userSpaceOnUse" gradientTransform="translate(304.568 511.793) scale(1.65563 0.705064)">
<stop stop-color="#370C5C"/>
<stop offset="0.432692" stop-color="#6333A6"/>
<stop offset="0.82" stop-color="#277AB0"/>
<stop offset="1" stop-color="#3C155A"/>
</radialGradient>
<radialGradient id="paint13_radial_44_2" cx="0" cy="0" r="1" gradientUnits="userSpaceOnUse" gradientTransform="translate(507.403 307.322) scale(7.11918 7.46528)">
<stop stop-color="#370C5C"/>
<stop offset="0.432692" stop-color="#6333A6"/>
<stop offset="0.82" stop-color="#277AB0"/>
<stop offset="1" stop-color="#3C155A"/>
</radialGradient>
<radialGradient id="paint14_radial_44_2" cx="0" cy="0" r="1" gradientUnits="userSpaceOnUse" gradientTransform="translate(469.854 114.248) scale(7.11918 6.97907)">
<stop stop-color="#370C5C"/>
<stop offset="0.432692" stop-color="#6333A6"/>
<stop offset="0.82" stop-color="#277AB0"/>
<stop offset="1" stop-color="#3C155A"/>
</radialGradient>
<radialGradient id="paint15_radial_44_2" cx="0" cy="0" r="1" gradientUnits="userSpaceOnUse" gradientTransform="translate(114.198 42.0248) scale(7.11917 6.96761)">
<stop stop-color="#370C5C"/>
<stop offset="0.432692" stop-color="#6333A6"/>
<stop offset="0.82" stop-color="#277AB0"/>
<stop offset="1" stop-color="#3C155A"/>
</radialGradient>
<radialGradient id="paint16_radial_44_2" cx="0" cy="0" r="1" gradientUnits="userSpaceOnUse" gradientTransform="translate(41.6222 397.592) scale(7.11917 7.13351)">
<stop stop-color="#370C5C"/>
<stop offset="0.432692" stop-color="#6333A6"/>
<stop offset="0.82" stop-color="#277AB0"/>
<stop offset="1" stop-color="#3C155A"/>
</radialGradient>
<radialGradient id="paint17_radial_44_2" cx="0" cy="0" r="1" gradientUnits="userSpaceOnUse" gradientTransform="translate(204.557 507.627) scale(6.95361 6.96761)">
<stop stop-color="#370C5C"/>
<stop offset="0.432692" stop-color="#6333A6"/>
<stop offset="0.82" stop-color="#277AB0"/>
<stop offset="1" stop-color="#3C155A"/>
</radialGradient>
<radialGradient id="paint18_radial_44_2" cx="0" cy="0" r="1" gradientUnits="userSpaceOnUse" gradientTransform="translate(468.59 399.848) scale(7.11918 6.96761)">
<stop stop-color="#370C5C"/>
<stop offset="0.432692" stop-color="#6333A6"/>
<stop offset="0.82" stop-color="#277AB0"/>
<stop offset="1" stop-color="#3C155A"/>
</radialGradient>
<radialGradient id="paint19_radial_44_2" cx="0" cy="0" r="1" gradientUnits="userSpaceOnUse" gradientTransform="translate(307.191 4.5633) scale(7.11918 7.13351)">
<stop stop-color="#370C5C"/>
<stop offset="0.432692" stop-color="#6333A6"/>
<stop offset="0.82" stop-color="#277AB0"/>
<stop offset="1" stop-color="#3C155A"/>
</radialGradient>
<radialGradient id="paint20_radial_44_2" cx="0" cy="0" r="1" gradientUnits="userSpaceOnUse" gradientTransform="translate(507.788 206.861) scale(7.08125 7.09305)">
<stop stop-color="#370C5C"/>
<stop offset="0.432692" stop-color="#6333A6"/>
<stop offset="0.82" stop-color="#277AB0"/>
<stop offset="1" stop-color="#3C155A"/>
</radialGradient>
<radialGradient id="paint21_radial_44_2" cx="0" cy="0" r="1" gradientUnits="userSpaceOnUse" gradientTransform="translate(397.369 470.26) scale(6.95361 6.96761)">
<stop stop-color="#370C5C"/>
<stop offset="0.432692" stop-color="#6333A6"/>
<stop offset="0.82" stop-color="#277AB0"/>
<stop offset="1" stop-color="#3C155A"/>
</radialGradient>
<radialGradient id="paint22_radial_44_2" cx="0" cy="0" r="1" gradientUnits="userSpaceOnUse" gradientTransform="translate(304.771 508.012) scale(6.98945 6.92939)">
<stop stop-color="#370C5C"/>
<stop offset="0.432692" stop-color="#6333A6"/>
<stop offset="0.82" stop-color="#277AB0"/>
<stop offset="1" stop-color="#3C155A"/>
</radialGradient>
<radialGradient id="paint23_radial_44_2" cx="0" cy="0" r="1" gradientUnits="userSpaceOnUse" gradientTransform="translate(42.8825 112.524) scale(7.11917 7.13351)">
<stop stop-color="#370C5C"/>
<stop offset="0.432692" stop-color="#6333A6"/>
<stop offset="0.82" stop-color="#277AB0"/>
<stop offset="1" stop-color="#3C155A"/>
</radialGradient>
<radialGradient id="paint24_radial_44_2" cx="0" cy="0" r="1" gradientUnits="userSpaceOnUse" gradientTransform="translate(4.52059 204.776) scale(6.95361 7.13351)">
<stop stop-color="#370C5C"/>
<stop offset="0.432692" stop-color="#6333A6"/>
<stop offset="0.82" stop-color="#277AB0"/>
<stop offset="1" stop-color="#3C155A"/>
</radialGradient>
<radialGradient id="paint25_radial_44_2" cx="0" cy="0" r="1" gradientUnits="userSpaceOnUse" gradientTransform="translate(112.029 468.82) scale(7.11918 6.98021)">
<stop stop-color="#370C5C"/>
<stop offset="0.432692" stop-color="#6333A6"/>
<stop offset="0.82" stop-color="#277AB0"/>
<stop offset="1" stop-color="#3C155A"/>
</radialGradient>
<radialGradient id="paint26_radial_44_2" cx="0" cy="0" r="1" gradientUnits="userSpaceOnUse" gradientTransform="translate(399.623 43.1091) scale(7.11918 6.96761)">
<stop stop-color="#370C5C"/>
<stop offset="0.432692" stop-color="#6333A6"/>
<stop offset="0.82" stop-color="#277AB0"/>
<stop offset="1" stop-color="#3C155A"/>
</radialGradient>
<radialGradient id="paint27_radial_44_2" cx="0" cy="0" r="1" gradientUnits="userSpaceOnUse" gradientTransform="translate(283.263 256.338) scale(4.3046 4.31327)">
<stop stop-color="#370C5C"/>
<stop offset="0.432692" stop-color="#6333A6"/>
<stop offset="0.82" stop-color="#277AB0"/>
<stop offset="1" stop-color="#3C155A"/>
</radialGradient>
<radialGradient id="paint28_radial_44_2" cx="0" cy="0" r="1" gradientUnits="userSpaceOnUse" gradientTransform="translate(255.821 283.51) scale(4.30462 4.14739)">
<stop stop-color="#370C5C"/>
<stop offset="0.432692" stop-color="#6333A6"/>
<stop offset="0.82" stop-color="#277AB0"/>
<stop offset="1" stop-color="#3C155A"/>
</radialGradient>
<radialGradient id="paint29_radial_44_2" cx="0" cy="0" r="1" gradientUnits="userSpaceOnUse" gradientTransform="translate(237.049 236.658) scale(4.30462 4.31327)">
<stop stop-color="#370C5C"/>
<stop offset="0.432692" stop-color="#6333A6"/>
<stop offset="0.82" stop-color="#277AB0"/>
<stop offset="1" stop-color="#3C155A"/>
</radialGradient>
<radialGradient id="paint30_radial_44_2" cx="0" cy="0" r="1" gradientUnits="userSpaceOnUse" gradientTransform="translate(228.733 255.888) scale(4.32267 4.14739)">
<stop stop-color="#370C5C"/>
<stop offset="0.432692" stop-color="#6333A6"/>
<stop offset="0.82" stop-color="#277AB0"/>
<stop offset="1" stop-color="#3C155A"/>
</radialGradient>
<radialGradient id="paint31_radial_44_2" cx="0" cy="0" r="1" gradientUnits="userSpaceOnUse" gradientTransform="translate(256.454 228.906) scale(4.13905 4.33138)">
<stop stop-color="#370C5C"/>
<stop offset="0.432692" stop-color="#6333A6"/>
<stop offset="0.82" stop-color="#277AB0"/>
<stop offset="1" stop-color="#3C155A"/>
</radialGradient>
<radialGradient id="paint32_radial_44_2" cx="0" cy="0" r="1" gradientUnits="userSpaceOnUse" gradientTransform="translate(236.507 275.206) scale(4.3046 4.14739)">
<stop stop-color="#370C5C"/>
<stop offset="0.432692" stop-color="#6333A6"/>
<stop offset="0.82" stop-color="#277AB0"/>
<stop offset="1" stop-color="#3C155A"/>
</radialGradient>
<radialGradient id="paint33_radial_44_2" cx="0" cy="0" r="1" gradientUnits="userSpaceOnUse" gradientTransform="translate(275.772 237.111) scale(4.13905 4.14739)">
<stop stop-color="#370C5C"/>
<stop offset="0.432692" stop-color="#6333A6"/>
<stop offset="0.82" stop-color="#277AB0"/>
<stop offset="1" stop-color="#3C155A"/>
</radialGradient>
<radialGradient id="paint34_radial_44_2" cx="0" cy="0" r="1" gradientUnits="userSpaceOnUse" gradientTransform="translate(274.959 275.666) scale(4.3046 4.32918)">
<stop stop-color="#370C5C"/>
<stop offset="0.432692" stop-color="#6333A6"/>
<stop offset="0.82" stop-color="#277AB0"/>
<stop offset="1" stop-color="#3C155A"/>
</radialGradient>
</defs>
</svg>
